<?xml version="1.0" encoding="UTF-8" standalone="no"?>
<!DOCTYPE svg PUBLIC "-//W3C//DTD SVG 1.1//EN"
 "http://www.w3.org/Graphics/SVG/1.1/DTD/svg11.dtd">
<!-- Generated by graphviz version 2.43.0 (0)
 -->
<!-- Pages: 1 -->
<svg width="719pt" height="334pt"
 viewBox="0.00 0.00 719.00 334.00" xmlns="http://www.w3.org/2000/svg" xmlns:xlink="http://www.w3.org/1999/xlink">
<g id="graph0" class="graph" transform="scale(1 1) rotate(0) translate(4 330)">
<polygon fill="white" stroke="transparent" points="-4,4 -4,-330 715,-330 715,4 -4,4"/>
<text text-anchor="middle" x="355.5" y="-7.8" font-family="Times,serif" font-size="14.00" fill="gray">rcviz nodes=9</text>
<!-- 139632444427328 -->
<g id="node1" class="node">
<title>139632444427328</title>
<path fill="#eeeeee" stroke="transparent" d="M146.5,-197C146.5,-197 272.5,-197 272.5,-197 278.5,-197 284.5,-203 284.5,-209 284.5,-209 284.5,-227 284.5,-227 284.5,-233 278.5,-239 272.5,-239 272.5,-239 146.5,-239 146.5,-239 140.5,-239 134.5,-233 134.5,-227 134.5,-227 134.5,-209 134.5,-209 134.5,-203 140.5,-197 146.5,-197"/>
<text text-anchor="start" x="138.5" y="-224.6" font-family="Times,serif" font-size="13.00">merge_sort_ya([8, 2])</text>
<text text-anchor="start" x="177.5" y="-204.6" font-family="Times,serif" font-size="13.00">ret: [2, 8]</text>
<polygon fill="gray" stroke="gray" points="134.5,-218 134.5,-218 284.5,-218 284.5,-218 134.5,-218"/>
</g>
<!-- 139632442672192 -->
<g id="node2" class="node">
<title>139632442672192</title>
<path fill="#eeeeee" stroke="transparent" d="M331.5,-197C331.5,-197 475.5,-197 475.5,-197 481.5,-197 487.5,-203 487.5,-209 487.5,-209 487.5,-227 487.5,-227 487.5,-233 481.5,-239 475.5,-239 475.5,-239 331.5,-239 331.5,-239 325.5,-239 319.5,-233 319.5,-227 319.5,-227 319.5,-209 319.5,-209 319.5,-203 325.5,-197 331.5,-197"/>
<text text-anchor="start" x="323.5" y="-224.6" font-family="Times,serif" font-size="13.00">merge_sort_ya([6, 4, 5])</text>
<text text-anchor="start" x="362.5" y="-204.6" font-family="Times,serif" font-size="13.00">ret: [4, 5, 6]</text>
<polygon fill="gray" stroke="gray" points="319.5,-218 319.5,-218 487.5,-218 487.5,-218 319.5,-218"/>
</g>
<!-- 139632444427328&#45;&gt;139632442672192 -->
<!-- 139632442671168 -->
<g id="node3" class="node">
<title>139632442671168</title>
<path fill="#eeeeee" stroke="transparent" d="M12,-110C12,-110 121,-110 121,-110 127,-110 133,-116 133,-122 133,-122 133,-140 133,-140 133,-146 127,-152 121,-152 121,-152 12,-152 12,-152 6,-152 0,-146 0,-140 0,-140 0,-122 0,-122 0,-116 6,-110 12,-110"/>
<text text-anchor="start" x="4.5" y="-137.6" font-family="Times,serif" font-size="13.00">merge_sort_ya([8])</text>
<text text-anchor="start" x="43.5" y="-117.6" font-family="Times,serif" font-size="13.00">ret: [8]</text>
<polygon fill="gray" stroke="gray" points="0.5,-131 0.5,-131 133.5,-131 133.5,-131 0.5,-131"/>
</g>
<!-- 139632444427328&#45;&gt;139632442671168 -->
<g id="edge5" class="edge">
<title>139632444427328&#45;&gt;139632442671168</title>
<path fill="none" stroke="#2c2c2c" d="M175.61,-196.86C155.81,-185.09 130.63,-170.12 109.45,-157.53"/>
<polygon fill="#2c2c2c" stroke="#2c2c2c" points="111.03,-154.39 100.64,-152.29 107.45,-160.41 111.03,-154.39"/>
<text text-anchor="middle" x="155.5" y="-172.6" font-family="Times,serif" font-size="8.00" fill="#999999">2 (⇑1)</text>
</g>
<!-- 139632442671680 -->
<g id="node4" class="node">
<title>139632442671680</title>
<path fill="#eeeeee" stroke="transparent" d="M181,-110C181,-110 290,-110 290,-110 296,-110 302,-116 302,-122 302,-122 302,-140 302,-140 302,-146 296,-152 290,-152 290,-152 181,-152 181,-152 175,-152 169,-146 169,-140 169,-140 169,-122 169,-122 169,-116 175,-110 181,-110"/>
<text text-anchor="start" x="173.5" y="-137.6" font-family="Times,serif" font-size="13.00">merge_sort_ya([2])</text>
<text text-anchor="start" x="212.5" y="-117.6" font-family="Times,serif" font-size="13.00">ret: [2]</text>
<polygon fill="gray" stroke="gray" points="169.5,-131 169.5,-131 302.5,-131 302.5,-131 169.5,-131"/>
</g>
<!-- 139632444427328&#45;&gt;139632442671680 -->
<g id="edge6" class="edge">
<title>139632444427328&#45;&gt;139632442671680</title>
<path fill="none" stroke="#424242" d="M215.66,-196.86C218.84,-186.45 222.79,-173.55 226.32,-162"/>
<polygon fill="#424242" stroke="#424242" points="229.71,-162.88 229.29,-152.29 223.02,-160.83 229.71,-162.88"/>
<text text-anchor="middle" x="236.5" y="-172.6" font-family="Times,serif" font-size="8.00" fill="#999999">3 (⇑2)</text>
</g>
<!-- 139632442672704 -->
<g id="node5" class="node">
<title>139632442672704</title>
<path fill="#eeeeee" stroke="transparent" d="M343,-110C343,-110 452,-110 452,-110 458,-110 464,-116 464,-122 464,-122 464,-140 464,-140 464,-146 458,-152 452,-152 452,-152 343,-152 343,-152 337,-152 331,-146 331,-140 331,-140 331,-122 331,-122 331,-116 337,-110 343,-110"/>
<text text-anchor="start" x="335.5" y="-137.6" font-family="Times,serif" font-size="13.00">merge_sort_ya([6])</text>
<text text-anchor="start" x="374.5" y="-117.6" font-family="Times,serif" font-size="13.00">ret: [6]</text>
<polygon fill="gray" stroke="gray" points="331.5,-131 331.5,-131 464.5,-131 464.5,-131 331.5,-131"/>
</g>
<!-- 139632442672192&#45;&gt;139632442672704 -->
<g id="edge7" class="edge">
<title>139632442672192&#45;&gt;139632442672704</title>
<path fill="none" stroke="#6f6f6f" d="M402.08,-196.86C401.35,-186.56 400.45,-173.81 399.64,-162.35"/>
<polygon fill="#6f6f6f" stroke="#6f6f6f" points="403.13,-162.02 398.93,-152.29 396.15,-162.52 403.13,-162.02"/>
<text text-anchor="middle" x="414.5" y="-172.6" font-family="Times,serif" font-size="8.00" fill="#999999">5 (⇑4)</text>
</g>
<!-- 139632442673216 -->
<g id="node6" class="node">
<title>139632442673216</title>
<path fill="#eeeeee" stroke="transparent" d="M511.5,-110C511.5,-110 637.5,-110 637.5,-110 643.5,-110 649.5,-116 649.5,-122 649.5,-122 649.5,-140 649.5,-140 649.5,-146 643.5,-152 637.5,-152 637.5,-152 511.5,-152 511.5,-152 505.5,-152 499.5,-146 499.5,-140 499.5,-140 499.5,-122 499.5,-122 499.5,-116 505.5,-110 511.5,-110"/>
<text text-anchor="start" x="503.5" y="-137.6" font-family="Times,serif" font-size="13.00">merge_sort_ya([4, 5])</text>
<text text-anchor="start" x="542.5" y="-117.6" font-family="Times,serif" font-size="13.00">ret: [4, 5]</text>
<polygon fill="gray" stroke="gray" points="499.5,-131 499.5,-131 649.5,-131 649.5,-131 499.5,-131"/>
</g>
<!-- 139632442672192&#45;&gt;139632442673216 -->
<g id="edge8" class="edge">
<title>139632442672192&#45;&gt;139632442673216</title>
<path fill="none" stroke="#858585" d="M444.02,-196.86C468.21,-184.83 499.12,-169.47 524.78,-156.72"/>
<polygon fill="#858585" stroke="#858585" points="526.57,-159.73 533.97,-152.15 523.46,-153.46 526.57,-159.73"/>
<text text-anchor="middle" x="507.5" y="-172.6" font-family="Times,serif" font-size="8.00" fill="#999999">6 (⇑7)</text>
</g>
<!-- 139632442671168&#45;&gt;139632442671680 -->
<!-- 139632442672704&#45;&gt;139632442673216 -->
<!-- 139632442673728 -->
<g id="node7" class="node">
<title>139632442673728</title>
<path fill="#eeeeee" stroke="transparent" d="M421,-23C421,-23 530,-23 530,-23 536,-23 542,-29 542,-35 542,-35 542,-53 542,-53 542,-59 536,-65 530,-65 530,-65 421,-65 421,-65 415,-65 409,-59 409,-53 409,-53 409,-35 409,-35 409,-29 415,-23 421,-23"/>
<text text-anchor="start" x="413.5" y="-50.6" font-family="Times,serif" font-size="13.00">merge_sort_ya([4])</text>
<text text-anchor="start" x="452.5" y="-30.6" font-family="Times,serif" font-size="13.00">ret: [4]</text>
<polygon fill="gray" stroke="gray" points="409.5,-44 409.5,-44 542.5,-44 542.5,-44 409.5,-44"/>
</g>
<!-- 139632442673216&#45;&gt;139632442673728 -->
<g id="edge9" class="edge">
<title>139632442673216&#45;&gt;139632442673728</title>
<path fill="none" stroke="#9b9b9b" d="M551.04,-109.86C537.82,-98.51 521.14,-84.18 506.81,-71.89"/>
<polygon fill="#9b9b9b" stroke="#9b9b9b" points="509,-69.15 499.14,-65.29 504.44,-74.46 509,-69.15"/>
<text text-anchor="middle" x="541.5" y="-85.6" font-family="Times,serif" font-size="8.00" fill="#999999">7 (⇑5)</text>
</g>
<!-- 139632442674240 -->
<g id="node8" class="node">
<title>139632442674240</title>
<path fill="#eeeeee" stroke="transparent" d="M590,-23C590,-23 699,-23 699,-23 705,-23 711,-29 711,-35 711,-35 711,-53 711,-53 711,-59 705,-65 699,-65 699,-65 590,-65 590,-65 584,-65 578,-59 578,-53 578,-53 578,-35 578,-35 578,-29 584,-23 590,-23"/>
<text text-anchor="start" x="582.5" y="-50.6" font-family="Times,serif" font-size="13.00">merge_sort_ya([5])</text>
<text text-anchor="start" x="621.5" y="-30.6" font-family="Times,serif" font-size="13.00">ret: [5]</text>
<polygon fill="gray" stroke="gray" points="578.5,-44 578.5,-44 711.5,-44 711.5,-44 578.5,-44"/>
</g>
<!-- 139632442673216&#45;&gt;139632442674240 -->
<g id="edge10" class="edge">
<title>139632442673216&#45;&gt;139632442674240</title>
<path fill="none" stroke="#b1b1b1" d="M591.09,-109.86C600.09,-98.93 611.36,-85.24 621.23,-73.26"/>
<polygon fill="#b1b1b1" stroke="#b1b1b1" points="624.13,-75.24 627.79,-65.29 618.73,-70.79 624.13,-75.24"/>
<text text-anchor="middle" x="625.5" y="-85.6" font-family="Times,serif" font-size="8.00" fill="#999999">8 (⇑6)</text>
</g>
<!-- 139632442673728&#45;&gt;139632442674240 -->
<!-- 139632444425280 -->
<g id="node9" class="node">
<title>139632444425280</title>
<path fill="#eeeeee" stroke="transparent" d="M216.5,-284C216.5,-284 394.5,-284 394.5,-284 400.5,-284 406.5,-290 406.5,-296 406.5,-296 406.5,-314 406.5,-314 406.5,-320 400.5,-326 394.5,-326 394.5,-326 216.5,-326 216.5,-326 210.5,-326 204.5,-320 204.5,-314 204.5,-314 204.5,-296 204.5,-296 204.5,-290 210.5,-284 216.5,-284"/>
<text text-anchor="start" x="208.5" y="-311.6" font-family="Times,serif" font-size="13.00">merge_sort_ya([8, 2, 6, 4, 5])</text>
<text text-anchor="start" x="247.5" y="-291.6" font-family="Times,serif" font-size="13.00">ret: [2, 4, 5, 6, 8]</text>
<polygon fill="gray" stroke="gray" points="204.5,-305 204.5,-305 406.5,-305 406.5,-305 204.5,-305"/>
</g>
<!-- 139632444425280&#45;&gt;139632444427328 -->
<g id="edge11" class="edge">
<title>139632444425280&#45;&gt;139632444427328</title>
<path fill="none" stroke="#161616" d="M282.75,-283.86C270.05,-272.61 254.05,-258.45 240.25,-246.23"/>
<polygon fill="#161616" stroke="#161616" points="242.23,-243.3 232.42,-239.29 237.59,-248.54 242.23,-243.3"/>
<text text-anchor="middle" x="273.5" y="-259.6" font-family="Times,serif" font-size="8.00" fill="#999999">1 (⇑3)</text>
</g>
<!-- 139632444425280&#45;&gt;139632442672192 -->
<g id="edge12" class="edge">
<title>139632444425280&#45;&gt;139632442672192</title>
<path fill="none" stroke="#585858" d="M328.72,-283.86C341.81,-272.51 358.32,-258.18 372.5,-245.89"/>
<polygon fill="#585858" stroke="#585858" points="374.84,-248.49 380.1,-239.29 370.25,-243.2 374.84,-248.49"/>
<text text-anchor="middle" x="370.5" y="-259.6" font-family="Times,serif" font-size="8.00" fill="#999999">4 (⇑8)</text>
</g>
</g>
</svg>
