<?xml version="1.0" encoding="UTF-8" standalone="no"?>
<!DOCTYPE svg PUBLIC "-//W3C//DTD SVG 1.1//EN"
 "http://www.w3.org/Graphics/SVG/1.1/DTD/svg11.dtd">
<!-- Generated by graphviz version 2.43.0 (0)
 -->
<!-- Pages: 1 -->
<svg width="624pt" height="334pt"
 viewBox="0.00 0.00 624.00 334.00" xmlns="http://www.w3.org/2000/svg" xmlns:xlink="http://www.w3.org/1999/xlink">
<g id="graph0" class="graph" transform="scale(1 1) rotate(0) translate(4 330)">
<polygon fill="white" stroke="transparent" points="-4,4 -4,-330 620,-330 620,4 -4,4"/>
<text text-anchor="middle" x="308" y="-7.8" font-family="Times,serif" font-size="14.00" fill="gray">rcviz nodes=9</text>
<!-- 140629452857408 -->
<g id="node1" class="node">
<title>140629452857408</title>
<path fill="#eeeeee" stroke="transparent" d="M123,-197C123,-197 228,-197 228,-197 234,-197 240,-203 240,-209 240,-209 240,-227 240,-227 240,-233 234,-239 228,-239 228,-239 123,-239 123,-239 117,-239 111,-233 111,-227 111,-227 111,-209 111,-209 111,-203 117,-197 123,-197"/>
<text text-anchor="start" x="115.5" y="-224.6" font-family="Times,serif" font-size="13.00">merge_sort([8, 2])</text>
<text text-anchor="start" x="144" y="-204.6" font-family="Times,serif" font-size="13.00">ret: [2, 8]</text>
<polygon fill="gray" stroke="gray" points="111.5,-218 111.5,-218 240.5,-218 240.5,-218 111.5,-218"/>
</g>
<!-- 140629452858944 -->
<g id="node2" class="node">
<title>140629452858944</title>
<path fill="#eeeeee" stroke="transparent" d="M287.5,-197C287.5,-197 409.5,-197 409.5,-197 415.5,-197 421.5,-203 421.5,-209 421.5,-209 421.5,-227 421.5,-227 421.5,-233 415.5,-239 409.5,-239 409.5,-239 287.5,-239 287.5,-239 281.5,-239 275.5,-233 275.5,-227 275.5,-227 275.5,-209 275.5,-209 275.5,-203 281.5,-197 287.5,-197"/>
<text text-anchor="start" x="279.5" y="-224.6" font-family="Times,serif" font-size="13.00">merge_sort([6, 4, 5])</text>
<text text-anchor="start" x="307.5" y="-204.6" font-family="Times,serif" font-size="13.00">ret: [4, 5, 6]</text>
<polygon fill="gray" stroke="gray" points="275.5,-218 275.5,-218 421.5,-218 421.5,-218 275.5,-218"/>
</g>
<!-- 140629452857408&#45;&gt;140629452858944 -->
<!-- 140629452857920 -->
<g id="node3" class="node">
<title>140629452857920</title>
<path fill="#eeeeee" stroke="transparent" d="M12,-110C12,-110 99,-110 99,-110 105,-110 111,-116 111,-122 111,-122 111,-140 111,-140 111,-146 105,-152 99,-152 99,-152 12,-152 12,-152 6,-152 0,-146 0,-140 0,-140 0,-122 0,-122 0,-116 6,-110 12,-110"/>
<text text-anchor="start" x="4.5" y="-137.6" font-family="Times,serif" font-size="13.00">merge_sort([8])</text>
<text text-anchor="start" x="32.5" y="-117.6" font-family="Times,serif" font-size="13.00">ret: [8]</text>
<polygon fill="gray" stroke="gray" points="0.5,-131 0.5,-131 111.5,-131 111.5,-131 0.5,-131"/>
</g>
<!-- 140629452857408&#45;&gt;140629452857920 -->
<g id="edge5" class="edge">
<title>140629452857408&#45;&gt;140629452857920</title>
<path fill="none" stroke="#2c2c2c" d="M147.06,-196.86C130.74,-185.3 110.07,-170.65 92.49,-158.2"/>
<polygon fill="#2c2c2c" stroke="#2c2c2c" points="94.33,-155.22 84.15,-152.29 90.29,-160.93 94.33,-155.22"/>
<text text-anchor="middle" x="132.5" y="-172.6" font-family="Times,serif" font-size="8.00" fill="#999999">2 (⇑1)</text>
</g>
<!-- 140629452858432 -->
<g id="node4" class="node">
<title>140629452858432</title>
<path fill="#eeeeee" stroke="transparent" d="M159,-110C159,-110 246,-110 246,-110 252,-110 258,-116 258,-122 258,-122 258,-140 258,-140 258,-146 252,-152 246,-152 246,-152 159,-152 159,-152 153,-152 147,-146 147,-140 147,-140 147,-122 147,-122 147,-116 153,-110 159,-110"/>
<text text-anchor="start" x="151.5" y="-137.6" font-family="Times,serif" font-size="13.00">merge_sort([2])</text>
<text text-anchor="start" x="179.5" y="-117.6" font-family="Times,serif" font-size="13.00">ret: [2]</text>
<polygon fill="gray" stroke="gray" points="147.5,-131 147.5,-131 258.5,-131 258.5,-131 147.5,-131"/>
</g>
<!-- 140629452857408&#45;&gt;140629452858432 -->
<g id="edge6" class="edge">
<title>140629452857408&#45;&gt;140629452858432</title>
<path fill="none" stroke="#424242" d="M181.9,-196.86C185.2,-186.45 189.3,-173.55 192.97,-162"/>
<polygon fill="#424242" stroke="#424242" points="196.36,-162.88 196.05,-152.29 189.69,-160.76 196.36,-162.88"/>
<text text-anchor="middle" x="203.5" y="-172.6" font-family="Times,serif" font-size="8.00" fill="#999999">3 (⇑2)</text>
</g>
<!-- 140629452859456 -->
<g id="node5" class="node">
<title>140629452859456</title>
<path fill="#eeeeee" stroke="transparent" d="M299,-110C299,-110 386,-110 386,-110 392,-110 398,-116 398,-122 398,-122 398,-140 398,-140 398,-146 392,-152 386,-152 386,-152 299,-152 299,-152 293,-152 287,-146 287,-140 287,-140 287,-122 287,-122 287,-116 293,-110 299,-110"/>
<text text-anchor="start" x="291.5" y="-137.6" font-family="Times,serif" font-size="13.00">merge_sort([6])</text>
<text text-anchor="start" x="319.5" y="-117.6" font-family="Times,serif" font-size="13.00">ret: [6]</text>
<polygon fill="gray" stroke="gray" points="287.5,-131 287.5,-131 398.5,-131 398.5,-131 287.5,-131"/>
</g>
<!-- 140629452858944&#45;&gt;140629452859456 -->
<g id="edge7" class="edge">
<title>140629452858944&#45;&gt;140629452859456</title>
<path fill="none" stroke="#6f6f6f" d="M347.08,-196.86C346.35,-186.56 345.45,-173.81 344.64,-162.35"/>
<polygon fill="#6f6f6f" stroke="#6f6f6f" points="348.13,-162.02 343.93,-152.29 341.15,-162.52 348.13,-162.02"/>
<text text-anchor="middle" x="359.5" y="-172.6" font-family="Times,serif" font-size="8.00" fill="#999999">5 (⇑4)</text>
</g>
<!-- 140629452859968 -->
<g id="node6" class="node">
<title>140629452859968</title>
<path fill="#eeeeee" stroke="transparent" d="M446,-110C446,-110 551,-110 551,-110 557,-110 563,-116 563,-122 563,-122 563,-140 563,-140 563,-146 557,-152 551,-152 551,-152 446,-152 446,-152 440,-152 434,-146 434,-140 434,-140 434,-122 434,-122 434,-116 440,-110 446,-110"/>
<text text-anchor="start" x="438.5" y="-137.6" font-family="Times,serif" font-size="13.00">merge_sort([4, 5])</text>
<text text-anchor="start" x="467" y="-117.6" font-family="Times,serif" font-size="13.00">ret: [4, 5]</text>
<polygon fill="gray" stroke="gray" points="434.5,-131 434.5,-131 563.5,-131 563.5,-131 434.5,-131"/>
</g>
<!-- 140629452858944&#45;&gt;140629452859968 -->
<g id="edge8" class="edge">
<title>140629452858944&#45;&gt;140629452859968</title>
<path fill="none" stroke="#858585" d="M384.05,-196.86C404.99,-184.99 431.66,-169.87 453.99,-157.22"/>
<polygon fill="#858585" stroke="#858585" points="455.97,-160.12 462.95,-152.15 452.52,-154.03 455.97,-160.12"/>
<text text-anchor="middle" x="441.5" y="-172.6" font-family="Times,serif" font-size="8.00" fill="#999999">6 (⇑7)</text>
</g>
<!-- 140629452857920&#45;&gt;140629452858432 -->
<!-- 140629452859456&#45;&gt;140629452859968 -->
<!-- 140629452860480 -->
<g id="node7" class="node">
<title>140629452860480</title>
<path fill="#eeeeee" stroke="transparent" d="M370,-23C370,-23 457,-23 457,-23 463,-23 469,-29 469,-35 469,-35 469,-53 469,-53 469,-59 463,-65 457,-65 457,-65 370,-65 370,-65 364,-65 358,-59 358,-53 358,-53 358,-35 358,-35 358,-29 364,-23 370,-23"/>
<text text-anchor="start" x="362.5" y="-50.6" font-family="Times,serif" font-size="13.00">merge_sort([4])</text>
<text text-anchor="start" x="390.5" y="-30.6" font-family="Times,serif" font-size="13.00">ret: [4]</text>
<polygon fill="gray" stroke="gray" points="358.5,-44 358.5,-44 469.5,-44 469.5,-44 358.5,-44"/>
</g>
<!-- 140629452859968&#45;&gt;140629452860480 -->
<g id="edge9" class="edge">
<title>140629452859968&#45;&gt;140629452860480</title>
<path fill="none" stroke="#9b9b9b" d="M478.36,-109.86C467.22,-98.72 453.21,-84.71 441.07,-72.57"/>
<polygon fill="#9b9b9b" stroke="#9b9b9b" points="443.34,-69.89 433.79,-65.29 438.39,-74.84 443.34,-69.89"/>
<text text-anchor="middle" x="472.5" y="-85.6" font-family="Times,serif" font-size="8.00" fill="#999999">7 (⇑5)</text>
</g>
<!-- 140629452873792 -->
<g id="node8" class="node">
<title>140629452873792</title>
<path fill="#eeeeee" stroke="transparent" d="M517,-23C517,-23 604,-23 604,-23 610,-23 616,-29 616,-35 616,-35 616,-53 616,-53 616,-59 610,-65 604,-65 604,-65 517,-65 517,-65 511,-65 505,-59 505,-53 505,-53 505,-35 505,-35 505,-29 511,-23 517,-23"/>
<text text-anchor="start" x="509.5" y="-50.6" font-family="Times,serif" font-size="13.00">merge_sort([5])</text>
<text text-anchor="start" x="537.5" y="-30.6" font-family="Times,serif" font-size="13.00">ret: [5]</text>
<polygon fill="gray" stroke="gray" points="505.5,-44 505.5,-44 616.5,-44 616.5,-44 505.5,-44"/>
</g>
<!-- 140629452859968&#45;&gt;140629452873792 -->
<g id="edge10" class="edge">
<title>140629452859968&#45;&gt;140629452873792</title>
<path fill="none" stroke="#b1b1b1" d="M513.19,-109.86C521.09,-99.03 530.96,-85.5 539.63,-73.61"/>
<polygon fill="#b1b1b1" stroke="#b1b1b1" points="542.63,-75.44 545.7,-65.29 536.98,-71.31 542.63,-75.44"/>
<text text-anchor="middle" x="544.5" y="-85.6" font-family="Times,serif" font-size="8.00" fill="#999999">8 (⇑6)</text>
</g>
<!-- 140629452860480&#45;&gt;140629452873792 -->
<!-- 140629454607424 -->
<g id="node9" class="node">
<title>140629454607424</title>
<path fill="#eeeeee" stroke="transparent" d="M183.5,-284C183.5,-284 339.5,-284 339.5,-284 345.5,-284 351.5,-290 351.5,-296 351.5,-296 351.5,-314 351.5,-314 351.5,-320 345.5,-326 339.5,-326 339.5,-326 183.5,-326 183.5,-326 177.5,-326 171.5,-320 171.5,-314 171.5,-314 171.5,-296 171.5,-296 171.5,-290 177.5,-284 183.5,-284"/>
<text text-anchor="start" x="175.5" y="-311.6" font-family="Times,serif" font-size="13.00">merge_sort([8, 2, 6, 4, 5])</text>
<text text-anchor="start" x="203.5" y="-291.6" font-family="Times,serif" font-size="13.00">ret: [2, 4, 5, 6, 8]</text>
<polygon fill="gray" stroke="gray" points="171.5,-305 171.5,-305 351.5,-305 351.5,-305 171.5,-305"/>
</g>
<!-- 140629454607424&#45;&gt;140629452857408 -->
<g id="edge11" class="edge">
<title>140629454607424&#45;&gt;140629452857408</title>
<path fill="none" stroke="#161616" d="M241.12,-283.86C229.85,-272.72 215.68,-258.71 203.4,-246.57"/>
<polygon fill="#161616" stroke="#161616" points="205.61,-243.83 196.03,-239.29 200.68,-248.81 205.61,-243.83"/>
<text text-anchor="middle" x="234.5" y="-259.6" font-family="Times,serif" font-size="8.00" fill="#999999">1 (⇑3)</text>
</g>
<!-- 140629454607424&#45;&gt;140629452858944 -->
<g id="edge12" class="edge">
<title>140629454607424&#45;&gt;140629452858944</title>
<path fill="none" stroke="#585858" d="M282.12,-283.86C293.52,-272.72 307.85,-258.71 320.28,-246.57"/>
<polygon fill="#585858" stroke="#585858" points="323.02,-248.79 327.73,-239.29 318.13,-243.78 323.02,-248.79"/>
<text text-anchor="middle" x="321.5" y="-259.6" font-family="Times,serif" font-size="8.00" fill="#999999">4 (⇑8)</text>
</g>
</g>
</svg>
