<?xml version="1.0" encoding="UTF-8" standalone="no"?>
<!DOCTYPE svg PUBLIC "-//W3C//DTD SVG 1.1//EN"
 "http://www.w3.org/Graphics/SVG/1.1/DTD/svg11.dtd">
<!-- Generated by graphviz version 2.43.0 (0)
 -->
<!-- Pages: 1 -->
<svg width="493pt" height="247pt"
 viewBox="0.00 0.00 493.00 247.00" xmlns="http://www.w3.org/2000/svg" xmlns:xlink="http://www.w3.org/1999/xlink">
<g id="graph0" class="graph" transform="scale(1 1) rotate(0) translate(4 243)">
<polygon fill="white" stroke="transparent" points="-4,4 -4,-243 489,-243 489,4 -4,4"/>
<text text-anchor="middle" x="242.5" y="-7.8" font-family="Times,serif" font-size="14.00" fill="gray">rcviz nodes=7</text>
<!-- 140698736712768 -->
<g id="node1" class="node">
<title>140698736712768</title>
<path fill="#eeeeee" stroke="transparent" d="M109.5,-110C109.5,-110 202.5,-110 202.5,-110 208.5,-110 214.5,-116 214.5,-122 214.5,-122 214.5,-140 214.5,-140 214.5,-146 208.5,-152 202.5,-152 202.5,-152 109.5,-152 109.5,-152 103.5,-152 97.5,-146 97.5,-140 97.5,-140 97.5,-122 97.5,-122 97.5,-116 103.5,-110 109.5,-110"/>
<text text-anchor="start" x="102" y="-137.6" font-family="Times,serif" font-size="13.00">quicksort([2, 4])</text>
<text text-anchor="start" x="124.5" y="-117.6" font-family="Times,serif" font-size="13.00">ret: [2, 4]</text>
<polygon fill="gray" stroke="gray" points="98,-131 98,-131 215,-131 215,-131 98,-131"/>
</g>
<!-- 140698735039552 -->
<g id="node2" class="node">
<title>140698735039552</title>
<path fill="#eeeeee" stroke="transparent" d="M262.5,-110C262.5,-110 355.5,-110 355.5,-110 361.5,-110 367.5,-116 367.5,-122 367.5,-122 367.5,-140 367.5,-140 367.5,-146 361.5,-152 355.5,-152 355.5,-152 262.5,-152 262.5,-152 256.5,-152 250.5,-146 250.5,-140 250.5,-140 250.5,-122 250.5,-122 250.5,-116 256.5,-110 262.5,-110"/>
<text text-anchor="start" x="255" y="-137.6" font-family="Times,serif" font-size="13.00">quicksort([8, 6])</text>
<text text-anchor="start" x="277.5" y="-117.6" font-family="Times,serif" font-size="13.00">ret: [6, 8]</text>
<polygon fill="gray" stroke="gray" points="251,-131 251,-131 368,-131 368,-131 251,-131"/>
</g>
<!-- 140698736712768&#45;&gt;140698735039552 -->
<!-- 140698735038528 -->
<g id="node3" class="node">
<title>140698735038528</title>
<path fill="#eeeeee" stroke="transparent" d="M12,-23C12,-23 88,-23 88,-23 94,-23 100,-29 100,-35 100,-35 100,-53 100,-53 100,-59 94,-65 88,-65 88,-65 12,-65 12,-65 6,-65 0,-59 0,-53 0,-53 0,-35 0,-35 0,-29 6,-23 12,-23"/>
<text text-anchor="start" x="4" y="-50.6" font-family="Times,serif" font-size="13.00">quicksort([2])</text>
<text text-anchor="start" x="26.5" y="-30.6" font-family="Times,serif" font-size="13.00">ret: [2]</text>
<polygon fill="gray" stroke="gray" points="0,-44 0,-44 100,-44 100,-44 0,-44"/>
</g>
<!-- 140698736712768&#45;&gt;140698735038528 -->
<g id="edge4" class="edge">
<title>140698736712768&#45;&gt;140698735038528</title>
<path fill="none" stroke="#393939" d="M130.88,-109.86C116.73,-98.51 98.86,-84.18 83.53,-71.89"/>
<polygon fill="#393939" stroke="#393939" points="85.3,-68.82 75.31,-65.29 80.92,-74.28 85.3,-68.82"/>
<text text-anchor="middle" x="120" y="-85.6" font-family="Times,serif" font-size="8.00" fill="#999999">2 (⇑1)</text>
</g>
<!-- 140698735039040 -->
<g id="node4" class="node">
<title>140698735039040</title>
<path fill="#eeeeee" stroke="transparent" d="M148,-23C148,-23 216,-23 216,-23 222,-23 228,-29 228,-35 228,-35 228,-53 228,-53 228,-59 222,-65 216,-65 216,-65 148,-65 148,-65 142,-65 136,-59 136,-53 136,-53 136,-35 136,-35 136,-29 142,-23 148,-23"/>
<text text-anchor="start" x="140" y="-50.6" font-family="Times,serif" font-size="13.00">quicksort([])</text>
<text text-anchor="start" x="162.5" y="-30.6" font-family="Times,serif" font-size="13.00">ret: []</text>
<polygon fill="gray" stroke="gray" points="136,-44 136,-44 228,-44 228,-44 136,-44"/>
</g>
<!-- 140698736712768&#45;&gt;140698735039040 -->
<g id="edge5" class="edge">
<title>140698736712768&#45;&gt;140698735039040</title>
<path fill="none" stroke="#555555" d="M162.16,-109.86C165.34,-99.45 169.29,-86.55 172.82,-75"/>
<polygon fill="#555555" stroke="#555555" points="176.21,-75.88 175.79,-65.29 169.52,-73.83 176.21,-75.88"/>
<text text-anchor="middle" x="183" y="-85.6" font-family="Times,serif" font-size="8.00" fill="#999999">3 (⇑2)</text>
</g>
<!-- 140698735040064 -->
<g id="node5" class="node">
<title>140698735040064</title>
<path fill="#eeeeee" stroke="transparent" d="M269,-23C269,-23 337,-23 337,-23 343,-23 349,-29 349,-35 349,-35 349,-53 349,-53 349,-59 343,-65 337,-65 337,-65 269,-65 269,-65 263,-65 257,-59 257,-53 257,-53 257,-35 257,-35 257,-29 263,-23 269,-23"/>
<text text-anchor="start" x="261" y="-50.6" font-family="Times,serif" font-size="13.00">quicksort([])</text>
<text text-anchor="start" x="283.5" y="-30.6" font-family="Times,serif" font-size="13.00">ret: []</text>
<polygon fill="gray" stroke="gray" points="257,-44 257,-44 349,-44 349,-44 257,-44"/>
</g>
<!-- 140698735039552&#45;&gt;140698735040064 -->
<g id="edge6" class="edge">
<title>140698735039552&#45;&gt;140698735040064</title>
<path fill="none" stroke="#8e8e8e" d="M307.58,-109.86C306.85,-99.56 305.95,-86.81 305.14,-75.35"/>
<polygon fill="#8e8e8e" stroke="#8e8e8e" points="308.63,-75.02 304.43,-65.29 301.65,-75.52 308.63,-75.02"/>
<text text-anchor="middle" x="320" y="-85.6" font-family="Times,serif" font-size="8.00" fill="#999999">5 (⇑4)</text>
</g>
<!-- 140698735040576 -->
<g id="node6" class="node">
<title>140698735040576</title>
<path fill="#eeeeee" stroke="transparent" d="M397,-23C397,-23 473,-23 473,-23 479,-23 485,-29 485,-35 485,-35 485,-53 485,-53 485,-59 479,-65 473,-65 473,-65 397,-65 397,-65 391,-65 385,-59 385,-53 385,-53 385,-35 385,-35 385,-29 391,-23 397,-23"/>
<text text-anchor="start" x="389" y="-50.6" font-family="Times,serif" font-size="13.00">quicksort([8])</text>
<text text-anchor="start" x="411.5" y="-30.6" font-family="Times,serif" font-size="13.00">ret: [8]</text>
<polygon fill="gray" stroke="gray" points="385,-44 385,-44 485,-44 485,-44 385,-44"/>
</g>
<!-- 140698735039552&#45;&gt;140698735040576 -->
<g id="edge7" class="edge">
<title>140698735039552&#45;&gt;140698735040576</title>
<path fill="none" stroke="#ababab" d="M338.86,-109.86C356.07,-98.24 377.9,-83.52 396.41,-71.03"/>
<polygon fill="#ababab" stroke="#ababab" points="398.58,-73.79 404.92,-65.29 394.67,-67.98 398.58,-73.79"/>
<text text-anchor="middle" x="388" y="-85.6" font-family="Times,serif" font-size="8.00" fill="#999999">6 (⇑5)</text>
</g>
<!-- 140698735038528&#45;&gt;140698735039040 -->
<!-- 140698735040064&#45;&gt;140698735040576 -->
<!-- 140698736710720 -->
<g id="node7" class="node">
<title>140698736710720</title>
<path fill="#eeeeee" stroke="transparent" d="M159.5,-197C159.5,-197 304.5,-197 304.5,-197 310.5,-197 316.5,-203 316.5,-209 316.5,-209 316.5,-227 316.5,-227 316.5,-233 310.5,-239 304.5,-239 304.5,-239 159.5,-239 159.5,-239 153.5,-239 147.5,-233 147.5,-227 147.5,-227 147.5,-209 147.5,-209 147.5,-203 153.5,-197 159.5,-197"/>
<text text-anchor="start" x="152" y="-224.6" font-family="Times,serif" font-size="13.00">quicksort([8, 2, 6, 4, 5])</text>
<text text-anchor="start" x="174.5" y="-204.6" font-family="Times,serif" font-size="13.00">ret: [2, 4, 5, 6, 8]</text>
<polygon fill="gray" stroke="gray" points="148,-218 148,-218 317,-218 317,-218 148,-218"/>
</g>
<!-- 140698736710720&#45;&gt;140698736712768 -->
<g id="edge8" class="edge">
<title>140698736710720&#45;&gt;140698736712768</title>
<path fill="none" stroke="#1c1c1c" d="M213.99,-196.86C204.12,-185.82 191.74,-171.98 180.96,-159.91"/>
<polygon fill="#1c1c1c" stroke="#1c1c1c" points="183.42,-157.42 174.15,-152.29 178.2,-162.08 183.42,-157.42"/>
<text text-anchor="middle" x="210" y="-172.6" font-family="Times,serif" font-size="8.00" fill="#999999">1 (⇑3)</text>
</g>
<!-- 140698736710720&#45;&gt;140698735039552 -->
<g id="edge9" class="edge">
<title>140698736710720&#45;&gt;140698735039552</title>
<path fill="none" stroke="#727272" d="M250.25,-196.86C260.24,-185.82 272.79,-171.98 283.71,-159.91"/>
<polygon fill="#727272" stroke="#727272" points="286.5,-162.05 290.62,-152.29 281.31,-157.36 286.5,-162.05"/>
<text text-anchor="middle" x="286" y="-172.6" font-family="Times,serif" font-size="8.00" fill="#999999">4 (⇑6)</text>
</g>
</g>
</svg>
