<?xml version="1.0" encoding="UTF-8" standalone="no"?>
<!DOCTYPE svg PUBLIC "-//W3C//DTD SVG 1.1//EN"
 "http://www.w3.org/Graphics/SVG/1.1/DTD/svg11.dtd">
<!-- Generated by graphviz version 2.43.0 (0)
 -->
<!-- Pages: 1 -->
<svg width="4283pt" height="334pt"
 viewBox="0.00 0.00 4283.00 334.00" xmlns="http://www.w3.org/2000/svg" xmlns:xlink="http://www.w3.org/1999/xlink">
<g id="graph0" class="graph" transform="scale(1 1) rotate(0) translate(4 330)">
<polygon fill="white" stroke="transparent" points="-4,4 -4,-330 4279,-330 4279,4 -4,4"/>
<text text-anchor="middle" x="2137.5" y="-7.8" font-family="Times,serif" font-size="14.00" fill="gray">rcviz nodes=40</text>
<!-- 140077425892416 -->
<g id="node1" class="node">
<title>140077425892416</title>
<path fill="#eeeeee" stroke="transparent" d="M1029,-197C1029,-197 1118,-197 1118,-197 1124,-197 1130,-203 1130,-209 1130,-209 1130,-227 1130,-227 1130,-233 1124,-239 1118,-239 1118,-239 1029,-239 1029,-239 1023,-239 1017,-233 1017,-227 1017,-227 1017,-209 1017,-209 1017,-203 1023,-197 1029,-197"/>
<text text-anchor="start" x="1021.5" y="-224.6" font-family="Times,serif" font-size="13.00">gen_binary(2,0)</text>
<text text-anchor="start" x="1042.5" y="-204.6" font-family="Times,serif" font-size="13.00">ret: None</text>
<polygon fill="gray" stroke="gray" points="1017.5,-218 1017.5,-218 1130.5,-218 1130.5,-218 1017.5,-218"/>
</g>
<!-- 140077424060992 -->
<g id="node2" class="node">
<title>140077424060992</title>
<path fill="#eeeeee" stroke="transparent" d="M2093,-197C2093,-197 2182,-197 2182,-197 2188,-197 2194,-203 2194,-209 2194,-209 2194,-227 2194,-227 2194,-233 2188,-239 2182,-239 2182,-239 2093,-239 2093,-239 2087,-239 2081,-233 2081,-227 2081,-227 2081,-209 2081,-209 2081,-203 2087,-197 2093,-197"/>
<text text-anchor="start" x="2085.5" y="-224.6" font-family="Times,serif" font-size="13.00">gen_binary(2,1)</text>
<text text-anchor="start" x="2106.5" y="-204.6" font-family="Times,serif" font-size="13.00">ret: None</text>
<polygon fill="gray" stroke="gray" points="2081.5,-218 2081.5,-218 2194.5,-218 2194.5,-218 2081.5,-218"/>
</g>
<!-- 140077425892416&#45;&gt;140077424060992 -->
<!-- 140077424033856 -->
<g id="node4" class="node">
<title>140077424033856</title>
<path fill="#eeeeee" stroke="transparent" d="M346,-110C346,-110 443,-110 443,-110 449,-110 455,-116 455,-122 455,-122 455,-140 455,-140 455,-146 449,-152 443,-152 443,-152 346,-152 346,-152 340,-152 334,-146 334,-140 334,-140 334,-122 334,-122 334,-116 340,-110 346,-110"/>
<text text-anchor="start" x="338.5" y="-137.6" font-family="Times,serif" font-size="13.00">gen_binary(1,00)</text>
<text text-anchor="start" x="363.5" y="-117.6" font-family="Times,serif" font-size="13.00">ret: None</text>
<polygon fill="gray" stroke="gray" points="334.5,-131 334.5,-131 455.5,-131 455.5,-131 334.5,-131"/>
</g>
<!-- 140077425892416&#45;&gt;140077424033856 -->
<g id="edge27" class="edge">
<title>140077425892416&#45;&gt;140077424033856</title>
<path fill="none" stroke="#0a0a0a" d="M1016.78,-209.9C893.45,-194.46 601.15,-157.87 465.69,-140.91"/>
<polygon fill="#0a0a0a" stroke="#0a0a0a" points="465.78,-137.4 455.43,-139.63 464.91,-144.34 465.78,-137.4"/>
<text text-anchor="middle" x="767.5" y="-172.6" font-family="Times,serif" font-size="8.00" fill="#999999">2 (⇑4)</text>
</g>
<!-- 140077424035904 -->
<g id="node5" class="node">
<title>140077424035904</title>
<path fill="#eeeeee" stroke="transparent" d="M761,-110C761,-110 858,-110 858,-110 864,-110 870,-116 870,-122 870,-122 870,-140 870,-140 870,-146 864,-152 858,-152 858,-152 761,-152 761,-152 755,-152 749,-146 749,-140 749,-140 749,-122 749,-122 749,-116 755,-110 761,-110"/>
<text text-anchor="start" x="753.5" y="-137.6" font-family="Times,serif" font-size="13.00">gen_binary(1,01)</text>
<text text-anchor="start" x="778.5" y="-117.6" font-family="Times,serif" font-size="13.00">ret: None</text>
<polygon fill="gray" stroke="gray" points="749.5,-131 749.5,-131 870.5,-131 870.5,-131 749.5,-131"/>
</g>
<!-- 140077425892416&#45;&gt;140077424035904 -->
<g id="edge28" class="edge">
<title>140077425892416&#45;&gt;140077424035904</title>
<path fill="none" stroke="#1e1e1e" d="M1016.87,-198.77C976.72,-185.84 922.59,-168.41 879.7,-154.6"/>
<polygon fill="#1e1e1e" stroke="#1e1e1e" points="880.77,-151.27 870.18,-151.54 878.62,-157.93 880.77,-151.27"/>
<text text-anchor="middle" x="962.5" y="-172.6" font-family="Times,serif" font-size="8.00" fill="#999999">6 (⇑8)</text>
</g>
<!-- 140077424058944 -->
<g id="node6" class="node">
<title>140077424058944</title>
<path fill="#eeeeee" stroke="transparent" d="M1025,-110C1025,-110 1122,-110 1122,-110 1128,-110 1134,-116 1134,-122 1134,-122 1134,-140 1134,-140 1134,-146 1128,-152 1122,-152 1122,-152 1025,-152 1025,-152 1019,-152 1013,-146 1013,-140 1013,-140 1013,-122 1013,-122 1013,-116 1019,-110 1025,-110"/>
<text text-anchor="start" x="1017.5" y="-137.6" font-family="Times,serif" font-size="13.00">gen_binary(1,02)</text>
<text text-anchor="start" x="1042.5" y="-117.6" font-family="Times,serif" font-size="13.00">ret: None</text>
<polygon fill="gray" stroke="gray" points="1013.5,-131 1013.5,-131 1134.5,-131 1134.5,-131 1013.5,-131"/>
</g>
<!-- 140077425892416&#45;&gt;140077424058944 -->
<g id="edge29" class="edge">
<title>140077425892416&#45;&gt;140077424058944</title>
<path fill="none" stroke="#323232" d="M1073.5,-196.86C1073.5,-186.56 1073.5,-173.81 1073.5,-162.35"/>
<polygon fill="#323232" stroke="#323232" points="1077,-162.29 1073.5,-152.29 1070,-162.29 1077,-162.29"/>
<text text-anchor="middle" x="1092" y="-172.6" font-family="Times,serif" font-size="8.00" fill="#999999">10 (⇑12)</text>
</g>
<!-- 140077424101440 -->
<g id="node3" class="node">
<title>140077424101440</title>
<path fill="#eeeeee" stroke="transparent" d="M3129,-197C3129,-197 3218,-197 3218,-197 3224,-197 3230,-203 3230,-209 3230,-209 3230,-227 3230,-227 3230,-233 3224,-239 3218,-239 3218,-239 3129,-239 3129,-239 3123,-239 3117,-233 3117,-227 3117,-227 3117,-209 3117,-209 3117,-203 3123,-197 3129,-197"/>
<text text-anchor="start" x="3121.5" y="-224.6" font-family="Times,serif" font-size="13.00">gen_binary(2,2)</text>
<text text-anchor="start" x="3142.5" y="-204.6" font-family="Times,serif" font-size="13.00">ret: None</text>
<polygon fill="gray" stroke="gray" points="3117.5,-218 3117.5,-218 3230.5,-218 3230.5,-218 3117.5,-218"/>
</g>
<!-- 140077424060992&#45;&gt;140077424101440 -->
<!-- 140077424061504 -->
<g id="node16" class="node">
<title>140077424061504</title>
<path fill="#eeeeee" stroke="transparent" d="M1777,-110C1777,-110 1874,-110 1874,-110 1880,-110 1886,-116 1886,-122 1886,-122 1886,-140 1886,-140 1886,-146 1880,-152 1874,-152 1874,-152 1777,-152 1777,-152 1771,-152 1765,-146 1765,-140 1765,-140 1765,-122 1765,-122 1765,-116 1771,-110 1777,-110"/>
<text text-anchor="start" x="1769.5" y="-137.6" font-family="Times,serif" font-size="13.00">gen_binary(1,10)</text>
<text text-anchor="start" x="1794.5" y="-117.6" font-family="Times,serif" font-size="13.00">ret: None</text>
<polygon fill="gray" stroke="gray" points="1765.5,-131 1765.5,-131 1886.5,-131 1886.5,-131 1765.5,-131"/>
</g>
<!-- 140077424060992&#45;&gt;140077424061504 -->
<g id="edge30" class="edge">
<title>140077424060992&#45;&gt;140077424061504</title>
<path fill="none" stroke="#4b4b4b" d="M2081,-201.61C2029.07,-187.46 1951.88,-166.43 1895.94,-151.19"/>
<polygon fill="#4b4b4b" stroke="#4b4b4b" points="1896.68,-147.76 1886.11,-148.51 1894.84,-154.52 1896.68,-147.76"/>
<text text-anchor="middle" x="2010" y="-172.6" font-family="Times,serif" font-size="8.00" fill="#999999">15 (⇑17)</text>
</g>
<!-- 140077424080448 -->
<g id="node17" class="node">
<title>140077424080448</title>
<path fill="#eeeeee" stroke="transparent" d="M2089,-110C2089,-110 2186,-110 2186,-110 2192,-110 2198,-116 2198,-122 2198,-122 2198,-140 2198,-140 2198,-146 2192,-152 2186,-152 2186,-152 2089,-152 2089,-152 2083,-152 2077,-146 2077,-140 2077,-140 2077,-122 2077,-122 2077,-116 2083,-110 2089,-110"/>
<text text-anchor="start" x="2081.5" y="-137.6" font-family="Times,serif" font-size="13.00">gen_binary(1,11)</text>
<text text-anchor="start" x="2106.5" y="-117.6" font-family="Times,serif" font-size="13.00">ret: None</text>
<polygon fill="gray" stroke="gray" points="2077.5,-131 2077.5,-131 2198.5,-131 2198.5,-131 2077.5,-131"/>
</g>
<!-- 140077424060992&#45;&gt;140077424080448 -->
<g id="edge31" class="edge">
<title>140077424060992&#45;&gt;140077424080448</title>
<path fill="none" stroke="#5f5f5f" d="M2137.5,-196.86C2137.5,-186.56 2137.5,-173.81 2137.5,-162.35"/>
<polygon fill="#5f5f5f" stroke="#5f5f5f" points="2141,-162.29 2137.5,-152.29 2134,-162.29 2141,-162.29"/>
<text text-anchor="middle" x="2156" y="-172.6" font-family="Times,serif" font-size="8.00" fill="#999999">19 (⇑21)</text>
</g>
<!-- 140077424099392 -->
<g id="node18" class="node">
<title>140077424099392</title>
<path fill="#eeeeee" stroke="transparent" d="M2401,-110C2401,-110 2498,-110 2498,-110 2504,-110 2510,-116 2510,-122 2510,-122 2510,-140 2510,-140 2510,-146 2504,-152 2498,-152 2498,-152 2401,-152 2401,-152 2395,-152 2389,-146 2389,-140 2389,-140 2389,-122 2389,-122 2389,-116 2395,-110 2401,-110"/>
<text text-anchor="start" x="2393.5" y="-137.6" font-family="Times,serif" font-size="13.00">gen_binary(1,12)</text>
<text text-anchor="start" x="2418.5" y="-117.6" font-family="Times,serif" font-size="13.00">ret: None</text>
<polygon fill="gray" stroke="gray" points="2389.5,-131 2389.5,-131 2510.5,-131 2510.5,-131 2389.5,-131"/>
</g>
<!-- 140077424060992&#45;&gt;140077424099392 -->
<g id="edge32" class="edge">
<title>140077424060992&#45;&gt;140077424099392</title>
<path fill="none" stroke="#737373" d="M2194,-201.61C2245.93,-187.46 2323.12,-166.43 2379.06,-151.19"/>
<polygon fill="#737373" stroke="#737373" points="2380.16,-154.52 2388.89,-148.51 2378.32,-147.76 2380.16,-154.52"/>
<text text-anchor="middle" x="2322" y="-172.6" font-family="Times,serif" font-size="8.00" fill="#999999">23 (⇑25)</text>
</g>
<!-- 140077424101952 -->
<g id="node28" class="node">
<title>140077424101952</title>
<path fill="#eeeeee" stroke="transparent" d="M3125,-110C3125,-110 3222,-110 3222,-110 3228,-110 3234,-116 3234,-122 3234,-122 3234,-140 3234,-140 3234,-146 3228,-152 3222,-152 3222,-152 3125,-152 3125,-152 3119,-152 3113,-146 3113,-140 3113,-140 3113,-122 3113,-122 3113,-116 3119,-110 3125,-110"/>
<text text-anchor="start" x="3117.5" y="-137.6" font-family="Times,serif" font-size="13.00">gen_binary(1,20)</text>
<text text-anchor="start" x="3142.5" y="-117.6" font-family="Times,serif" font-size="13.00">ret: None</text>
<polygon fill="gray" stroke="gray" points="3113.5,-131 3113.5,-131 3234.5,-131 3234.5,-131 3113.5,-131"/>
</g>
<!-- 140077424101440&#45;&gt;140077424101952 -->
<g id="edge33" class="edge">
<title>140077424101440&#45;&gt;140077424101952</title>
<path fill="none" stroke="#8c8c8c" d="M3173.5,-196.86C3173.5,-186.56 3173.5,-173.81 3173.5,-162.35"/>
<polygon fill="#8c8c8c" stroke="#8c8c8c" points="3177,-162.29 3173.5,-152.29 3170,-162.29 3177,-162.29"/>
<text text-anchor="middle" x="3192" y="-172.6" font-family="Times,serif" font-size="8.00" fill="#999999">28 (⇑30)</text>
</g>
<!-- 140077424120896 -->
<g id="node29" class="node">
<title>140077424120896</title>
<path fill="#eeeeee" stroke="transparent" d="M3437,-110C3437,-110 3534,-110 3534,-110 3540,-110 3546,-116 3546,-122 3546,-122 3546,-140 3546,-140 3546,-146 3540,-152 3534,-152 3534,-152 3437,-152 3437,-152 3431,-152 3425,-146 3425,-140 3425,-140 3425,-122 3425,-122 3425,-116 3431,-110 3437,-110"/>
<text text-anchor="start" x="3429.5" y="-137.6" font-family="Times,serif" font-size="13.00">gen_binary(1,21)</text>
<text text-anchor="start" x="3454.5" y="-117.6" font-family="Times,serif" font-size="13.00">ret: None</text>
<polygon fill="gray" stroke="gray" points="3425.5,-131 3425.5,-131 3546.5,-131 3546.5,-131 3425.5,-131"/>
</g>
<!-- 140077424101440&#45;&gt;140077424120896 -->
<g id="edge34" class="edge">
<title>140077424101440&#45;&gt;140077424120896</title>
<path fill="none" stroke="#a0a0a0" d="M3230,-201.61C3281.93,-187.46 3359.12,-166.43 3415.06,-151.19"/>
<polygon fill="#a0a0a0" stroke="#a0a0a0" points="3416.16,-154.52 3424.89,-148.51 3414.32,-147.76 3416.16,-154.52"/>
<text text-anchor="middle" x="3357" y="-172.6" font-family="Times,serif" font-size="8.00" fill="#999999">32 (⇑34)</text>
</g>
<!-- 140077424122944 -->
<g id="node30" class="node">
<title>140077424122944</title>
<path fill="#eeeeee" stroke="transparent" d="M3832,-110C3832,-110 3929,-110 3929,-110 3935,-110 3941,-116 3941,-122 3941,-122 3941,-140 3941,-140 3941,-146 3935,-152 3929,-152 3929,-152 3832,-152 3832,-152 3826,-152 3820,-146 3820,-140 3820,-140 3820,-122 3820,-122 3820,-116 3826,-110 3832,-110"/>
<text text-anchor="start" x="3824.5" y="-137.6" font-family="Times,serif" font-size="13.00">gen_binary(1,22)</text>
<text text-anchor="start" x="3849.5" y="-117.6" font-family="Times,serif" font-size="13.00">ret: None</text>
<polygon fill="gray" stroke="gray" points="3820.5,-131 3820.5,-131 3941.5,-131 3941.5,-131 3820.5,-131"/>
</g>
<!-- 140077424101440&#45;&gt;140077424122944 -->
<g id="edge35" class="edge">
<title>140077424101440&#45;&gt;140077424122944</title>
<path fill="none" stroke="#b4b4b4" d="M3230.16,-210.19C3358.11,-194.8 3669.16,-157.41 3809.61,-140.52"/>
<polygon fill="#b4b4b4" stroke="#b4b4b4" points="3810.31,-143.96 3819.82,-139.29 3809.48,-137.01 3810.31,-143.96"/>
<text text-anchor="middle" x="3566" y="-172.6" font-family="Times,serif" font-size="8.00" fill="#999999">36 (⇑38)</text>
</g>
<!-- 140077424033856&#45;&gt;140077424035904 -->
<!-- 140077424034368 -->
<g id="node7" class="node">
<title>140077424034368</title>
<path fill="#eeeeee" stroke="transparent" d="M12,-23C12,-23 117,-23 117,-23 123,-23 129,-29 129,-35 129,-35 129,-53 129,-53 129,-59 123,-65 117,-65 117,-65 12,-65 12,-65 6,-65 0,-59 0,-53 0,-53 0,-35 0,-35 0,-29 6,-23 12,-23"/>
<text text-anchor="start" x="4.5" y="-50.6" font-family="Times,serif" font-size="13.00">gen_binary(0,000)</text>
<text text-anchor="start" x="33.5" y="-30.6" font-family="Times,serif" font-size="13.00">ret: None</text>
<polygon fill="gray" stroke="gray" points="0.5,-44 0.5,-44 129.5,-44 129.5,-44 0.5,-44"/>
</g>
<!-- 140077424033856&#45;&gt;140077424034368 -->
<g id="edge36" class="edge">
<title>140077424033856&#45;&gt;140077424034368</title>
<path fill="none" stroke="#0f0f0f" d="M333.97,-114.41C279.09,-100.27 198.02,-79.39 139.14,-64.23"/>
<polygon fill="#0f0f0f" stroke="#0f0f0f" points="139.71,-60.76 129.16,-61.65 137.97,-67.54 139.71,-60.76"/>
<text text-anchor="middle" x="252.5" y="-85.6" font-family="Times,serif" font-size="8.00" fill="#999999">3 (⇑1)</text>
</g>
<!-- 140077424034880 -->
<g id="node8" class="node">
<title>140077424034880</title>
<path fill="#eeeeee" stroke="transparent" d="M177,-23C177,-23 282,-23 282,-23 288,-23 294,-29 294,-35 294,-35 294,-53 294,-53 294,-59 288,-65 282,-65 282,-65 177,-65 177,-65 171,-65 165,-59 165,-53 165,-53 165,-35 165,-35 165,-29 171,-23 177,-23"/>
<text text-anchor="start" x="169.5" y="-50.6" font-family="Times,serif" font-size="13.00">gen_binary(0,001)</text>
<text text-anchor="start" x="198.5" y="-30.6" font-family="Times,serif" font-size="13.00">ret: None</text>
<polygon fill="gray" stroke="gray" points="165.5,-44 165.5,-44 294.5,-44 294.5,-44 165.5,-44"/>
</g>
<!-- 140077424033856&#45;&gt;140077424034880 -->
<g id="edge37" class="edge">
<title>140077424033856&#45;&gt;140077424034880</title>
<path fill="none" stroke="#141414" d="M355.4,-109.86C332.16,-97.88 302.5,-82.61 277.8,-69.88"/>
<polygon fill="#141414" stroke="#141414" points="279.1,-66.61 268.61,-65.15 275.89,-72.84 279.1,-66.61"/>
<text text-anchor="middle" x="330.5" y="-85.6" font-family="Times,serif" font-size="8.00" fill="#999999">4 (⇑2)</text>
</g>
<!-- 140077424035392 -->
<g id="node9" class="node">
<title>140077424035392</title>
<path fill="#eeeeee" stroke="transparent" d="M342,-23C342,-23 447,-23 447,-23 453,-23 459,-29 459,-35 459,-35 459,-53 459,-53 459,-59 453,-65 447,-65 447,-65 342,-65 342,-65 336,-65 330,-59 330,-53 330,-53 330,-35 330,-35 330,-29 336,-23 342,-23"/>
<text text-anchor="start" x="334.5" y="-50.6" font-family="Times,serif" font-size="13.00">gen_binary(0,002)</text>
<text text-anchor="start" x="363.5" y="-30.6" font-family="Times,serif" font-size="13.00">ret: None</text>
<polygon fill="gray" stroke="gray" points="330.5,-44 330.5,-44 459.5,-44 459.5,-44 330.5,-44"/>
</g>
<!-- 140077424033856&#45;&gt;140077424035392 -->
<g id="edge38" class="edge">
<title>140077424033856&#45;&gt;140077424035392</title>
<path fill="none" stroke="#191919" d="M394.5,-109.86C394.5,-99.56 394.5,-86.81 394.5,-75.35"/>
<polygon fill="#191919" stroke="#191919" points="398,-75.29 394.5,-65.29 391,-75.29 398,-75.29"/>
<text text-anchor="middle" x="407.5" y="-85.6" font-family="Times,serif" font-size="8.00" fill="#999999">5 (⇑3)</text>
</g>
<!-- 140077424035904&#45;&gt;140077424058944 -->
<!-- 140077424036416 -->
<g id="node10" class="node">
<title>140077424036416</title>
<path fill="#eeeeee" stroke="transparent" d="M489,-23C489,-23 594,-23 594,-23 600,-23 606,-29 606,-35 606,-35 606,-53 606,-53 606,-59 600,-65 594,-65 594,-65 489,-65 489,-65 483,-65 477,-59 477,-53 477,-53 477,-35 477,-35 477,-29 483,-23 489,-23"/>
<text text-anchor="start" x="481.5" y="-50.6" font-family="Times,serif" font-size="13.00">gen_binary(0,010)</text>
<text text-anchor="start" x="510.5" y="-30.6" font-family="Times,serif" font-size="13.00">ret: None</text>
<polygon fill="gray" stroke="gray" points="477.5,-44 477.5,-44 606.5,-44 606.5,-44 477.5,-44"/>
</g>
<!-- 140077424035904&#45;&gt;140077424036416 -->
<g id="edge39" class="edge">
<title>140077424035904&#45;&gt;140077424036416</title>
<path fill="none" stroke="#232323" d="M748.69,-110.71C708.86,-98.08 656.58,-81.5 614.51,-68.15"/>
<polygon fill="#232323" stroke="#232323" points="615.46,-64.79 604.87,-65.1 613.34,-71.46 615.46,-64.79"/>
<text text-anchor="middle" x="697.5" y="-85.6" font-family="Times,serif" font-size="8.00" fill="#999999">7 (⇑5)</text>
</g>
<!-- 140077424036928 -->
<g id="node11" class="node">
<title>140077424036928</title>
<path fill="#eeeeee" stroke="transparent" d="M654,-23C654,-23 759,-23 759,-23 765,-23 771,-29 771,-35 771,-35 771,-53 771,-53 771,-59 765,-65 759,-65 759,-65 654,-65 654,-65 648,-65 642,-59 642,-53 642,-53 642,-35 642,-35 642,-29 648,-23 654,-23"/>
<text text-anchor="start" x="646.5" y="-50.6" font-family="Times,serif" font-size="13.00">gen_binary(0,011)</text>
<text text-anchor="start" x="675.5" y="-30.6" font-family="Times,serif" font-size="13.00">ret: None</text>
<polygon fill="gray" stroke="gray" points="642.5,-44 642.5,-44 771.5,-44 771.5,-44 642.5,-44"/>
</g>
<!-- 140077424035904&#45;&gt;140077424036928 -->
<g id="edge40" class="edge">
<title>140077424035904&#45;&gt;140077424036928</title>
<path fill="none" stroke="#282828" d="M785.09,-109.86C771.34,-98.51 753.98,-84.18 739.08,-71.89"/>
<polygon fill="#282828" stroke="#282828" points="741.03,-68.96 731.09,-65.29 736.58,-74.36 741.03,-68.96"/>
<text text-anchor="middle" x="774.5" y="-85.6" font-family="Times,serif" font-size="8.00" fill="#999999">8 (⇑6)</text>
</g>
<!-- 140077424058432 -->
<g id="node12" class="node">
<title>140077424058432</title>
<path fill="#eeeeee" stroke="transparent" d="M819,-23C819,-23 924,-23 924,-23 930,-23 936,-29 936,-35 936,-35 936,-53 936,-53 936,-59 930,-65 924,-65 924,-65 819,-65 819,-65 813,-65 807,-59 807,-53 807,-53 807,-35 807,-35 807,-29 813,-23 819,-23"/>
<text text-anchor="start" x="811.5" y="-50.6" font-family="Times,serif" font-size="13.00">gen_binary(0,012)</text>
<text text-anchor="start" x="840.5" y="-30.6" font-family="Times,serif" font-size="13.00">ret: None</text>
<polygon fill="gray" stroke="gray" points="807.5,-44 807.5,-44 936.5,-44 936.5,-44 807.5,-44"/>
</g>
<!-- 140077424035904&#45;&gt;140077424058432 -->
<g id="edge41" class="edge">
<title>140077424035904&#45;&gt;140077424058432</title>
<path fill="none" stroke="#2d2d2d" d="M824.19,-109.86C832.09,-99.03 841.96,-85.5 850.63,-73.61"/>
<polygon fill="#2d2d2d" stroke="#2d2d2d" points="853.63,-75.44 856.7,-65.29 847.98,-71.31 853.63,-75.44"/>
<text text-anchor="middle" x="855.5" y="-85.6" font-family="Times,serif" font-size="8.00" fill="#999999">9 (⇑7)</text>
</g>
<!-- 140077424059456 -->
<g id="node13" class="node">
<title>140077424059456</title>
<path fill="#eeeeee" stroke="transparent" d="M966,-23C966,-23 1071,-23 1071,-23 1077,-23 1083,-29 1083,-35 1083,-35 1083,-53 1083,-53 1083,-59 1077,-65 1071,-65 1071,-65 966,-65 966,-65 960,-65 954,-59 954,-53 954,-53 954,-35 954,-35 954,-29 960,-23 966,-23"/>
<text text-anchor="start" x="958.5" y="-50.6" font-family="Times,serif" font-size="13.00">gen_binary(0,020)</text>
<text text-anchor="start" x="987.5" y="-30.6" font-family="Times,serif" font-size="13.00">ret: None</text>
<polygon fill="gray" stroke="gray" points="954.5,-44 954.5,-44 1083.5,-44 1083.5,-44 954.5,-44"/>
</g>
<!-- 140077424058944&#45;&gt;140077424059456 -->
<g id="edge42" class="edge">
<title>140077424058944&#45;&gt;140077424059456</title>
<path fill="none" stroke="#373737" d="M1060.47,-109.86C1053.53,-99.14 1044.88,-85.77 1037.23,-73.95"/>
<polygon fill="#373737" stroke="#373737" points="1040,-71.79 1031.63,-65.29 1034.13,-75.59 1040,-71.79"/>
<text text-anchor="middle" x="1064" y="-85.6" font-family="Times,serif" font-size="8.00" fill="#999999">11 (⇑9)</text>
</g>
<!-- 140077424059968 -->
<g id="node14" class="node">
<title>140077424059968</title>
<path fill="#eeeeee" stroke="transparent" d="M1131,-23C1131,-23 1236,-23 1236,-23 1242,-23 1248,-29 1248,-35 1248,-35 1248,-53 1248,-53 1248,-59 1242,-65 1236,-65 1236,-65 1131,-65 1131,-65 1125,-65 1119,-59 1119,-53 1119,-53 1119,-35 1119,-35 1119,-29 1125,-23 1131,-23"/>
<text text-anchor="start" x="1123.5" y="-50.6" font-family="Times,serif" font-size="13.00">gen_binary(0,021)</text>
<text text-anchor="start" x="1152.5" y="-30.6" font-family="Times,serif" font-size="13.00">ret: None</text>
<polygon fill="gray" stroke="gray" points="1119.5,-44 1119.5,-44 1248.5,-44 1248.5,-44 1119.5,-44"/>
</g>
<!-- 140077424058944&#45;&gt;140077424059968 -->
<g id="edge43" class="edge">
<title>140077424058944&#45;&gt;140077424059968</title>
<path fill="none" stroke="#3c3c3c" d="M1099.57,-109.86C1114.39,-98.4 1133.14,-83.92 1149.15,-71.54"/>
<polygon fill="#3c3c3c" stroke="#3c3c3c" points="1151.46,-74.18 1157.24,-65.29 1147.18,-68.64 1151.46,-74.18"/>
<text text-anchor="middle" x="1151" y="-85.6" font-family="Times,serif" font-size="8.00" fill="#999999">12 (⇑10)</text>
</g>
<!-- 140077424060480 -->
<g id="node15" class="node">
<title>140077424060480</title>
<path fill="#eeeeee" stroke="transparent" d="M1296,-23C1296,-23 1401,-23 1401,-23 1407,-23 1413,-29 1413,-35 1413,-35 1413,-53 1413,-53 1413,-59 1407,-65 1401,-65 1401,-65 1296,-65 1296,-65 1290,-65 1284,-59 1284,-53 1284,-53 1284,-35 1284,-35 1284,-29 1290,-23 1296,-23"/>
<text text-anchor="start" x="1288.5" y="-50.6" font-family="Times,serif" font-size="13.00">gen_binary(0,022)</text>
<text text-anchor="start" x="1317.5" y="-30.6" font-family="Times,serif" font-size="13.00">ret: None</text>
<polygon fill="gray" stroke="gray" points="1284.5,-44 1284.5,-44 1413.5,-44 1413.5,-44 1284.5,-44"/>
</g>
<!-- 140077424058944&#45;&gt;140077424060480 -->
<g id="edge44" class="edge">
<title>140077424058944&#45;&gt;140077424060480</title>
<path fill="none" stroke="#414141" d="M1134.19,-111.24C1175.36,-98.51 1230.07,-81.61 1273.9,-68.06"/>
<polygon fill="#414141" stroke="#414141" points="1275.13,-71.34 1283.65,-65.04 1273.06,-64.65 1275.13,-71.34"/>
<text text-anchor="middle" x="1238" y="-85.6" font-family="Times,serif" font-size="8.00" fill="#999999">13 (⇑11)</text>
</g>
<!-- 140077424034368&#45;&gt;140077424034880 -->
<!-- 140077424034880&#45;&gt;140077424035392 -->
<!-- 140077424036416&#45;&gt;140077424036928 -->
<!-- 140077424036928&#45;&gt;140077424058432 -->
<!-- 140077424059456&#45;&gt;140077424059968 -->
<!-- 140077424059968&#45;&gt;140077424060480 -->
<!-- 140077424061504&#45;&gt;140077424080448 -->
<!-- 140077424078912 -->
<g id="node19" class="node">
<title>140077424078912</title>
<path fill="#eeeeee" stroke="transparent" d="M1443,-23C1443,-23 1548,-23 1548,-23 1554,-23 1560,-29 1560,-35 1560,-35 1560,-53 1560,-53 1560,-59 1554,-65 1548,-65 1548,-65 1443,-65 1443,-65 1437,-65 1431,-59 1431,-53 1431,-53 1431,-35 1431,-35 1431,-29 1437,-23 1443,-23"/>
<text text-anchor="start" x="1435.5" y="-50.6" font-family="Times,serif" font-size="13.00">gen_binary(0,100)</text>
<text text-anchor="start" x="1464.5" y="-30.6" font-family="Times,serif" font-size="13.00">ret: None</text>
<polygon fill="gray" stroke="gray" points="1431.5,-44 1431.5,-44 1560.5,-44 1560.5,-44 1431.5,-44"/>
</g>
<!-- 140077424061504&#45;&gt;140077424078912 -->
<g id="edge45" class="edge">
<title>140077424061504&#45;&gt;140077424078912</title>
<path fill="none" stroke="#505050" d="M1764.97,-114.41C1710.09,-100.27 1629.02,-79.39 1570.14,-64.23"/>
<polygon fill="#505050" stroke="#505050" points="1570.71,-60.76 1560.16,-61.65 1568.97,-67.54 1570.71,-60.76"/>
<text text-anchor="middle" x="1689" y="-85.6" font-family="Times,serif" font-size="8.00" fill="#999999">16 (⇑14)</text>
</g>
<!-- 140077424079424 -->
<g id="node20" class="node">
<title>140077424079424</title>
<path fill="#eeeeee" stroke="transparent" d="M1608,-23C1608,-23 1713,-23 1713,-23 1719,-23 1725,-29 1725,-35 1725,-35 1725,-53 1725,-53 1725,-59 1719,-65 1713,-65 1713,-65 1608,-65 1608,-65 1602,-65 1596,-59 1596,-53 1596,-53 1596,-35 1596,-35 1596,-29 1602,-23 1608,-23"/>
<text text-anchor="start" x="1600.5" y="-50.6" font-family="Times,serif" font-size="13.00">gen_binary(0,101)</text>
<text text-anchor="start" x="1629.5" y="-30.6" font-family="Times,serif" font-size="13.00">ret: None</text>
<polygon fill="gray" stroke="gray" points="1596.5,-44 1596.5,-44 1725.5,-44 1725.5,-44 1596.5,-44"/>
</g>
<!-- 140077424061504&#45;&gt;140077424079424 -->
<g id="edge46" class="edge">
<title>140077424061504&#45;&gt;140077424079424</title>
<path fill="none" stroke="#555555" d="M1786.4,-109.86C1763.16,-97.88 1733.5,-82.61 1708.8,-69.88"/>
<polygon fill="#555555" stroke="#555555" points="1710.1,-66.61 1699.61,-65.15 1706.89,-72.84 1710.1,-66.61"/>
<text text-anchor="middle" x="1767" y="-85.6" font-family="Times,serif" font-size="8.00" fill="#999999">17 (⇑15)</text>
</g>
<!-- 140077424079936 -->
<g id="node21" class="node">
<title>140077424079936</title>
<path fill="#eeeeee" stroke="transparent" d="M1773,-23C1773,-23 1878,-23 1878,-23 1884,-23 1890,-29 1890,-35 1890,-35 1890,-53 1890,-53 1890,-59 1884,-65 1878,-65 1878,-65 1773,-65 1773,-65 1767,-65 1761,-59 1761,-53 1761,-53 1761,-35 1761,-35 1761,-29 1767,-23 1773,-23"/>
<text text-anchor="start" x="1765.5" y="-50.6" font-family="Times,serif" font-size="13.00">gen_binary(0,102)</text>
<text text-anchor="start" x="1794.5" y="-30.6" font-family="Times,serif" font-size="13.00">ret: None</text>
<polygon fill="gray" stroke="gray" points="1761.5,-44 1761.5,-44 1890.5,-44 1890.5,-44 1761.5,-44"/>
</g>
<!-- 140077424061504&#45;&gt;140077424079936 -->
<g id="edge47" class="edge">
<title>140077424061504&#45;&gt;140077424079936</title>
<path fill="none" stroke="#5a5a5a" d="M1825.5,-109.86C1825.5,-99.56 1825.5,-86.81 1825.5,-75.35"/>
<polygon fill="#5a5a5a" stroke="#5a5a5a" points="1829,-75.29 1825.5,-65.29 1822,-75.29 1829,-75.29"/>
<text text-anchor="middle" x="1844" y="-85.6" font-family="Times,serif" font-size="8.00" fill="#999999">18 (⇑16)</text>
</g>
<!-- 140077424080448&#45;&gt;140077424099392 -->
<!-- 140077424080960 -->
<g id="node22" class="node">
<title>140077424080960</title>
<path fill="#eeeeee" stroke="transparent" d="M1920,-23C1920,-23 2025,-23 2025,-23 2031,-23 2037,-29 2037,-35 2037,-35 2037,-53 2037,-53 2037,-59 2031,-65 2025,-65 2025,-65 1920,-65 1920,-65 1914,-65 1908,-59 1908,-53 1908,-53 1908,-35 1908,-35 1908,-29 1914,-23 1920,-23"/>
<text text-anchor="start" x="1912.5" y="-50.6" font-family="Times,serif" font-size="13.00">gen_binary(0,110)</text>
<text text-anchor="start" x="1941.5" y="-30.6" font-family="Times,serif" font-size="13.00">ret: None</text>
<polygon fill="gray" stroke="gray" points="1908.5,-44 1908.5,-44 2037.5,-44 2037.5,-44 1908.5,-44"/>
</g>
<!-- 140077424080448&#45;&gt;140077424080960 -->
<g id="edge48" class="edge">
<title>140077424080448&#45;&gt;140077424080960</title>
<path fill="none" stroke="#646464" d="M2098.4,-109.86C2075.16,-97.88 2045.5,-82.61 2020.8,-69.88"/>
<polygon fill="#646464" stroke="#646464" points="2022.1,-66.61 2011.61,-65.15 2018.89,-72.84 2022.1,-66.61"/>
<text text-anchor="middle" x="2079" y="-85.6" font-family="Times,serif" font-size="8.00" fill="#999999">20 (⇑18)</text>
</g>
<!-- 140077424081472 -->
<g id="node23" class="node">
<title>140077424081472</title>
<path fill="#eeeeee" stroke="transparent" d="M2085,-23C2085,-23 2190,-23 2190,-23 2196,-23 2202,-29 2202,-35 2202,-35 2202,-53 2202,-53 2202,-59 2196,-65 2190,-65 2190,-65 2085,-65 2085,-65 2079,-65 2073,-59 2073,-53 2073,-53 2073,-35 2073,-35 2073,-29 2079,-23 2085,-23"/>
<text text-anchor="start" x="2077.5" y="-50.6" font-family="Times,serif" font-size="13.00">gen_binary(0,111)</text>
<text text-anchor="start" x="2106.5" y="-30.6" font-family="Times,serif" font-size="13.00">ret: None</text>
<polygon fill="gray" stroke="gray" points="2073.5,-44 2073.5,-44 2202.5,-44 2202.5,-44 2073.5,-44"/>
</g>
<!-- 140077424080448&#45;&gt;140077424081472 -->
<g id="edge49" class="edge">
<title>140077424080448&#45;&gt;140077424081472</title>
<path fill="none" stroke="#696969" d="M2137.5,-109.86C2137.5,-99.56 2137.5,-86.81 2137.5,-75.35"/>
<polygon fill="#696969" stroke="#696969" points="2141,-75.29 2137.5,-65.29 2134,-75.29 2141,-75.29"/>
<text text-anchor="middle" x="2156" y="-85.6" font-family="Times,serif" font-size="8.00" fill="#999999">21 (⇑19)</text>
</g>
<!-- 140077424081984 -->
<g id="node24" class="node">
<title>140077424081984</title>
<path fill="#eeeeee" stroke="transparent" d="M2250,-23C2250,-23 2355,-23 2355,-23 2361,-23 2367,-29 2367,-35 2367,-35 2367,-53 2367,-53 2367,-59 2361,-65 2355,-65 2355,-65 2250,-65 2250,-65 2244,-65 2238,-59 2238,-53 2238,-53 2238,-35 2238,-35 2238,-29 2244,-23 2250,-23"/>
<text text-anchor="start" x="2242.5" y="-50.6" font-family="Times,serif" font-size="13.00">gen_binary(0,112)</text>
<text text-anchor="start" x="2271.5" y="-30.6" font-family="Times,serif" font-size="13.00">ret: None</text>
<polygon fill="gray" stroke="gray" points="2238.5,-44 2238.5,-44 2367.5,-44 2367.5,-44 2238.5,-44"/>
</g>
<!-- 140077424080448&#45;&gt;140077424081984 -->
<g id="edge50" class="edge">
<title>140077424080448&#45;&gt;140077424081984</title>
<path fill="none" stroke="#6e6e6e" d="M2176.6,-109.86C2199.84,-97.88 2229.5,-82.61 2254.2,-69.88"/>
<polygon fill="#6e6e6e" stroke="#6e6e6e" points="2256.11,-72.84 2263.39,-65.15 2252.9,-66.61 2256.11,-72.84"/>
<text text-anchor="middle" x="2244" y="-85.6" font-family="Times,serif" font-size="8.00" fill="#999999">22 (⇑20)</text>
</g>
<!-- 140077424099904 -->
<g id="node25" class="node">
<title>140077424099904</title>
<path fill="#eeeeee" stroke="transparent" d="M2397,-23C2397,-23 2502,-23 2502,-23 2508,-23 2514,-29 2514,-35 2514,-35 2514,-53 2514,-53 2514,-59 2508,-65 2502,-65 2502,-65 2397,-65 2397,-65 2391,-65 2385,-59 2385,-53 2385,-53 2385,-35 2385,-35 2385,-29 2391,-23 2397,-23"/>
<text text-anchor="start" x="2389.5" y="-50.6" font-family="Times,serif" font-size="13.00">gen_binary(0,120)</text>
<text text-anchor="start" x="2418.5" y="-30.6" font-family="Times,serif" font-size="13.00">ret: None</text>
<polygon fill="gray" stroke="gray" points="2385.5,-44 2385.5,-44 2514.5,-44 2514.5,-44 2385.5,-44"/>
</g>
<!-- 140077424099392&#45;&gt;140077424099904 -->
<g id="edge51" class="edge">
<title>140077424099392&#45;&gt;140077424099904</title>
<path fill="none" stroke="#787878" d="M2449.5,-109.86C2449.5,-99.56 2449.5,-86.81 2449.5,-75.35"/>
<polygon fill="#787878" stroke="#787878" points="2453,-75.29 2449.5,-65.29 2446,-75.29 2453,-75.29"/>
<text text-anchor="middle" x="2468" y="-85.6" font-family="Times,serif" font-size="8.00" fill="#999999">24 (⇑22)</text>
</g>
<!-- 140077424100416 -->
<g id="node26" class="node">
<title>140077424100416</title>
<path fill="#eeeeee" stroke="transparent" d="M2562,-23C2562,-23 2667,-23 2667,-23 2673,-23 2679,-29 2679,-35 2679,-35 2679,-53 2679,-53 2679,-59 2673,-65 2667,-65 2667,-65 2562,-65 2562,-65 2556,-65 2550,-59 2550,-53 2550,-53 2550,-35 2550,-35 2550,-29 2556,-23 2562,-23"/>
<text text-anchor="start" x="2554.5" y="-50.6" font-family="Times,serif" font-size="13.00">gen_binary(0,121)</text>
<text text-anchor="start" x="2583.5" y="-30.6" font-family="Times,serif" font-size="13.00">ret: None</text>
<polygon fill="gray" stroke="gray" points="2550.5,-44 2550.5,-44 2679.5,-44 2679.5,-44 2550.5,-44"/>
</g>
<!-- 140077424099392&#45;&gt;140077424100416 -->
<g id="edge52" class="edge">
<title>140077424099392&#45;&gt;140077424100416</title>
<path fill="none" stroke="#7d7d7d" d="M2488.6,-109.86C2511.84,-97.88 2541.5,-82.61 2566.2,-69.88"/>
<polygon fill="#7d7d7d" stroke="#7d7d7d" points="2568.11,-72.84 2575.39,-65.15 2564.9,-66.61 2568.11,-72.84"/>
<text text-anchor="middle" x="2556" y="-85.6" font-family="Times,serif" font-size="8.00" fill="#999999">25 (⇑23)</text>
</g>
<!-- 140077424100928 -->
<g id="node27" class="node">
<title>140077424100928</title>
<path fill="#eeeeee" stroke="transparent" d="M2727,-23C2727,-23 2832,-23 2832,-23 2838,-23 2844,-29 2844,-35 2844,-35 2844,-53 2844,-53 2844,-59 2838,-65 2832,-65 2832,-65 2727,-65 2727,-65 2721,-65 2715,-59 2715,-53 2715,-53 2715,-35 2715,-35 2715,-29 2721,-23 2727,-23"/>
<text text-anchor="start" x="2719.5" y="-50.6" font-family="Times,serif" font-size="13.00">gen_binary(0,122)</text>
<text text-anchor="start" x="2748.5" y="-30.6" font-family="Times,serif" font-size="13.00">ret: None</text>
<polygon fill="gray" stroke="gray" points="2715.5,-44 2715.5,-44 2844.5,-44 2844.5,-44 2715.5,-44"/>
</g>
<!-- 140077424099392&#45;&gt;140077424100928 -->
<g id="edge53" class="edge">
<title>140077424099392&#45;&gt;140077424100928</title>
<path fill="none" stroke="#828282" d="M2510.03,-114.41C2564.91,-100.27 2645.98,-79.39 2704.86,-64.23"/>
<polygon fill="#828282" stroke="#828282" points="2706.03,-67.54 2714.84,-61.65 2704.29,-60.76 2706.03,-67.54"/>
<text text-anchor="middle" x="2643" y="-85.6" font-family="Times,serif" font-size="8.00" fill="#999999">26 (⇑24)</text>
</g>
<!-- 140077424078912&#45;&gt;140077424079424 -->
<!-- 140077424079424&#45;&gt;140077424079936 -->
<!-- 140077424080960&#45;&gt;140077424081472 -->
<!-- 140077424081472&#45;&gt;140077424081984 -->
<!-- 140077424099904&#45;&gt;140077424100416 -->
<!-- 140077424100416&#45;&gt;140077424100928 -->
<!-- 140077424101952&#45;&gt;140077424120896 -->
<!-- 140077424102464 -->
<g id="node31" class="node">
<title>140077424102464</title>
<path fill="#eeeeee" stroke="transparent" d="M2874,-23C2874,-23 2979,-23 2979,-23 2985,-23 2991,-29 2991,-35 2991,-35 2991,-53 2991,-53 2991,-59 2985,-65 2979,-65 2979,-65 2874,-65 2874,-65 2868,-65 2862,-59 2862,-53 2862,-53 2862,-35 2862,-35 2862,-29 2868,-23 2874,-23"/>
<text text-anchor="start" x="2866.5" y="-50.6" font-family="Times,serif" font-size="13.00">gen_binary(0,200)</text>
<text text-anchor="start" x="2895.5" y="-30.6" font-family="Times,serif" font-size="13.00">ret: None</text>
<polygon fill="gray" stroke="gray" points="2862.5,-44 2862.5,-44 2991.5,-44 2991.5,-44 2862.5,-44"/>
</g>
<!-- 140077424101952&#45;&gt;140077424102464 -->
<g id="edge54" class="edge">
<title>140077424101952&#45;&gt;140077424102464</title>
<path fill="none" stroke="#919191" d="M3115.28,-109.96C3079.14,-97.53 3032.54,-81.49 2994.69,-68.46"/>
<polygon fill="#919191" stroke="#919191" points="2995.35,-64.99 2984.76,-65.05 2993.08,-71.61 2995.35,-64.99"/>
<text text-anchor="middle" x="3075" y="-85.6" font-family="Times,serif" font-size="8.00" fill="#999999">29 (⇑27)</text>
</g>
<!-- 140077424119872 -->
<g id="node32" class="node">
<title>140077424119872</title>
<path fill="#eeeeee" stroke="transparent" d="M3039,-23C3039,-23 3144,-23 3144,-23 3150,-23 3156,-29 3156,-35 3156,-35 3156,-53 3156,-53 3156,-59 3150,-65 3144,-65 3144,-65 3039,-65 3039,-65 3033,-65 3027,-59 3027,-53 3027,-53 3027,-35 3027,-35 3027,-29 3033,-23 3039,-23"/>
<text text-anchor="start" x="3031.5" y="-50.6" font-family="Times,serif" font-size="13.00">gen_binary(0,201)</text>
<text text-anchor="start" x="3060.5" y="-30.6" font-family="Times,serif" font-size="13.00">ret: None</text>
<polygon fill="gray" stroke="gray" points="3027.5,-44 3027.5,-44 3156.5,-44 3156.5,-44 3027.5,-44"/>
</g>
<!-- 140077424101952&#45;&gt;140077424119872 -->
<g id="edge55" class="edge">
<title>140077424101952&#45;&gt;140077424119872</title>
<path fill="none" stroke="#969696" d="M3154.07,-109.86C3143.32,-98.72 3129.81,-84.71 3118.1,-72.57"/>
<polygon fill="#969696" stroke="#969696" points="3120.54,-70.06 3111.08,-65.29 3115.5,-74.92 3120.54,-70.06"/>
<text text-anchor="middle" x="3153" y="-85.6" font-family="Times,serif" font-size="8.00" fill="#999999">30 (⇑28)</text>
</g>
<!-- 140077424120384 -->
<g id="node33" class="node">
<title>140077424120384</title>
<path fill="#eeeeee" stroke="transparent" d="M3204,-23C3204,-23 3309,-23 3309,-23 3315,-23 3321,-29 3321,-35 3321,-35 3321,-53 3321,-53 3321,-59 3315,-65 3309,-65 3309,-65 3204,-65 3204,-65 3198,-65 3192,-59 3192,-53 3192,-53 3192,-35 3192,-35 3192,-29 3198,-23 3204,-23"/>
<text text-anchor="start" x="3196.5" y="-50.6" font-family="Times,serif" font-size="13.00">gen_binary(0,202)</text>
<text text-anchor="start" x="3225.5" y="-30.6" font-family="Times,serif" font-size="13.00">ret: None</text>
<polygon fill="gray" stroke="gray" points="3192.5,-44 3192.5,-44 3321.5,-44 3321.5,-44 3192.5,-44"/>
</g>
<!-- 140077424101952&#45;&gt;140077424120384 -->
<g id="edge56" class="edge">
<title>140077424101952&#45;&gt;140077424120384</title>
<path fill="none" stroke="#9b9b9b" d="M3193.17,-109.86C3204.05,-98.72 3217.72,-84.71 3229.58,-72.57"/>
<polygon fill="#9b9b9b" stroke="#9b9b9b" points="3232.2,-74.89 3236.68,-65.29 3227.19,-70 3232.2,-74.89"/>
<text text-anchor="middle" x="3235" y="-85.6" font-family="Times,serif" font-size="8.00" fill="#999999">31 (⇑29)</text>
</g>
<!-- 140077424120896&#45;&gt;140077424122944 -->
<!-- 140077424121408 -->
<g id="node34" class="node">
<title>140077424121408</title>
<path fill="#eeeeee" stroke="transparent" d="M3351,-23C3351,-23 3456,-23 3456,-23 3462,-23 3468,-29 3468,-35 3468,-35 3468,-53 3468,-53 3468,-59 3462,-65 3456,-65 3456,-65 3351,-65 3351,-65 3345,-65 3339,-59 3339,-53 3339,-53 3339,-35 3339,-35 3339,-29 3345,-23 3351,-23"/>
<text text-anchor="start" x="3343.5" y="-50.6" font-family="Times,serif" font-size="13.00">gen_binary(0,210)</text>
<text text-anchor="start" x="3372.5" y="-30.6" font-family="Times,serif" font-size="13.00">ret: None</text>
<polygon fill="gray" stroke="gray" points="3339.5,-44 3339.5,-44 3468.5,-44 3468.5,-44 3339.5,-44"/>
</g>
<!-- 140077424120896&#45;&gt;140077424121408 -->
<g id="edge57" class="edge">
<title>140077424120896&#45;&gt;140077424121408</title>
<path fill="none" stroke="#a5a5a5" d="M3466.07,-109.86C3455.32,-98.72 3441.81,-84.71 3430.1,-72.57"/>
<polygon fill="#a5a5a5" stroke="#a5a5a5" points="3432.54,-70.06 3423.08,-65.29 3427.5,-74.92 3432.54,-70.06"/>
<text text-anchor="middle" x="3465" y="-85.6" font-family="Times,serif" font-size="8.00" fill="#999999">33 (⇑31)</text>
</g>
<!-- 140077424121920 -->
<g id="node35" class="node">
<title>140077424121920</title>
<path fill="#eeeeee" stroke="transparent" d="M3516,-23C3516,-23 3621,-23 3621,-23 3627,-23 3633,-29 3633,-35 3633,-35 3633,-53 3633,-53 3633,-59 3627,-65 3621,-65 3621,-65 3516,-65 3516,-65 3510,-65 3504,-59 3504,-53 3504,-53 3504,-35 3504,-35 3504,-29 3510,-23 3516,-23"/>
<text text-anchor="start" x="3508.5" y="-50.6" font-family="Times,serif" font-size="13.00">gen_binary(0,211)</text>
<text text-anchor="start" x="3537.5" y="-30.6" font-family="Times,serif" font-size="13.00">ret: None</text>
<polygon fill="gray" stroke="gray" points="3504.5,-44 3504.5,-44 3633.5,-44 3633.5,-44 3504.5,-44"/>
</g>
<!-- 140077424120896&#45;&gt;140077424121920 -->
<g id="edge58" class="edge">
<title>140077424120896&#45;&gt;140077424121920</title>
<path fill="none" stroke="#aaaaaa" d="M3505.17,-109.86C3516.05,-98.72 3529.72,-84.71 3541.58,-72.57"/>
<polygon fill="#aaaaaa" stroke="#aaaaaa" points="3544.2,-74.89 3548.68,-65.29 3539.19,-70 3544.2,-74.89"/>
<text text-anchor="middle" x="3547" y="-85.6" font-family="Times,serif" font-size="8.00" fill="#999999">34 (⇑32)</text>
</g>
<!-- 140077424122432 -->
<g id="node36" class="node">
<title>140077424122432</title>
<path fill="#eeeeee" stroke="transparent" d="M3681,-23C3681,-23 3786,-23 3786,-23 3792,-23 3798,-29 3798,-35 3798,-35 3798,-53 3798,-53 3798,-59 3792,-65 3786,-65 3786,-65 3681,-65 3681,-65 3675,-65 3669,-59 3669,-53 3669,-53 3669,-35 3669,-35 3669,-29 3675,-23 3681,-23"/>
<text text-anchor="start" x="3673.5" y="-50.6" font-family="Times,serif" font-size="13.00">gen_binary(0,212)</text>
<text text-anchor="start" x="3702.5" y="-30.6" font-family="Times,serif" font-size="13.00">ret: None</text>
<polygon fill="gray" stroke="gray" points="3669.5,-44 3669.5,-44 3798.5,-44 3798.5,-44 3669.5,-44"/>
</g>
<!-- 140077424120896&#45;&gt;140077424122432 -->
<g id="edge59" class="edge">
<title>140077424120896&#45;&gt;140077424122432</title>
<path fill="none" stroke="#afafaf" d="M3543.96,-109.96C3580.39,-97.48 3627.43,-81.36 3665.52,-68.3"/>
<polygon fill="#afafaf" stroke="#afafaf" points="3666.68,-71.6 3675,-65.05 3664.41,-64.98 3666.68,-71.6"/>
<text text-anchor="middle" x="3635" y="-85.6" font-family="Times,serif" font-size="8.00" fill="#999999">35 (⇑33)</text>
</g>
<!-- 140077424136256 -->
<g id="node37" class="node">
<title>140077424136256</title>
<path fill="#eeeeee" stroke="transparent" d="M3828,-23C3828,-23 3933,-23 3933,-23 3939,-23 3945,-29 3945,-35 3945,-35 3945,-53 3945,-53 3945,-59 3939,-65 3933,-65 3933,-65 3828,-65 3828,-65 3822,-65 3816,-59 3816,-53 3816,-53 3816,-35 3816,-35 3816,-29 3822,-23 3828,-23"/>
<text text-anchor="start" x="3820.5" y="-50.6" font-family="Times,serif" font-size="13.00">gen_binary(0,220)</text>
<text text-anchor="start" x="3849.5" y="-30.6" font-family="Times,serif" font-size="13.00">ret: None</text>
<polygon fill="gray" stroke="gray" points="3816.5,-44 3816.5,-44 3945.5,-44 3945.5,-44 3816.5,-44"/>
</g>
<!-- 140077424122944&#45;&gt;140077424136256 -->
<g id="edge60" class="edge">
<title>140077424122944&#45;&gt;140077424136256</title>
<path fill="none" stroke="#b9b9b9" d="M3880.5,-109.86C3880.5,-99.56 3880.5,-86.81 3880.5,-75.35"/>
<polygon fill="#b9b9b9" stroke="#b9b9b9" points="3884,-75.29 3880.5,-65.29 3877,-75.29 3884,-75.29"/>
<text text-anchor="middle" x="3899" y="-85.6" font-family="Times,serif" font-size="8.00" fill="#999999">37 (⇑35)</text>
</g>
<!-- 140077424136768 -->
<g id="node38" class="node">
<title>140077424136768</title>
<path fill="#eeeeee" stroke="transparent" d="M3993,-23C3993,-23 4098,-23 4098,-23 4104,-23 4110,-29 4110,-35 4110,-35 4110,-53 4110,-53 4110,-59 4104,-65 4098,-65 4098,-65 3993,-65 3993,-65 3987,-65 3981,-59 3981,-53 3981,-53 3981,-35 3981,-35 3981,-29 3987,-23 3993,-23"/>
<text text-anchor="start" x="3985.5" y="-50.6" font-family="Times,serif" font-size="13.00">gen_binary(0,221)</text>
<text text-anchor="start" x="4014.5" y="-30.6" font-family="Times,serif" font-size="13.00">ret: None</text>
<polygon fill="gray" stroke="gray" points="3981.5,-44 3981.5,-44 4110.5,-44 4110.5,-44 3981.5,-44"/>
</g>
<!-- 140077424122944&#45;&gt;140077424136768 -->
<g id="edge61" class="edge">
<title>140077424122944&#45;&gt;140077424136768</title>
<path fill="none" stroke="#bebebe" d="M3919.6,-109.86C3942.84,-97.88 3972.5,-82.61 3997.2,-69.88"/>
<polygon fill="#bebebe" stroke="#bebebe" points="3999.11,-72.84 4006.39,-65.15 3995.9,-66.61 3999.11,-72.84"/>
<text text-anchor="middle" x="3986" y="-85.6" font-family="Times,serif" font-size="8.00" fill="#999999">38 (⇑36)</text>
</g>
<!-- 140077424137280 -->
<g id="node39" class="node">
<title>140077424137280</title>
<path fill="#eeeeee" stroke="transparent" d="M4158,-23C4158,-23 4263,-23 4263,-23 4269,-23 4275,-29 4275,-35 4275,-35 4275,-53 4275,-53 4275,-59 4269,-65 4263,-65 4263,-65 4158,-65 4158,-65 4152,-65 4146,-59 4146,-53 4146,-53 4146,-35 4146,-35 4146,-29 4152,-23 4158,-23"/>
<text text-anchor="start" x="4150.5" y="-50.6" font-family="Times,serif" font-size="13.00">gen_binary(0,222)</text>
<text text-anchor="start" x="4179.5" y="-30.6" font-family="Times,serif" font-size="13.00">ret: None</text>
<polygon fill="gray" stroke="gray" points="4146.5,-44 4146.5,-44 4275.5,-44 4275.5,-44 4146.5,-44"/>
</g>
<!-- 140077424122944&#45;&gt;140077424137280 -->
<g id="edge62" class="edge">
<title>140077424122944&#45;&gt;140077424137280</title>
<path fill="none" stroke="#c3c3c3" d="M3941.03,-114.41C3995.91,-100.27 4076.98,-79.39 4135.86,-64.23"/>
<polygon fill="#c3c3c3" stroke="#c3c3c3" points="4137.03,-67.54 4145.84,-61.65 4135.29,-60.76 4137.03,-67.54"/>
<text text-anchor="middle" x="4073" y="-85.6" font-family="Times,serif" font-size="8.00" fill="#999999">39 (⇑37)</text>
</g>
<!-- 140077424102464&#45;&gt;140077424119872 -->
<!-- 140077424119872&#45;&gt;140077424120384 -->
<!-- 140077424121408&#45;&gt;140077424121920 -->
<!-- 140077424121920&#45;&gt;140077424122432 -->
<!-- 140077424136256&#45;&gt;140077424136768 -->
<!-- 140077424136768&#45;&gt;140077424137280 -->
<!-- 140077425890368 -->
<g id="node40" class="node">
<title>140077425890368</title>
<path fill="#eeeeee" stroke="transparent" d="M2097,-284C2097,-284 2178,-284 2178,-284 2184,-284 2190,-290 2190,-296 2190,-296 2190,-314 2190,-314 2190,-320 2184,-326 2178,-326 2178,-326 2097,-326 2097,-326 2091,-326 2085,-320 2085,-314 2085,-314 2085,-296 2085,-296 2085,-290 2091,-284 2097,-284"/>
<text text-anchor="start" x="2089.5" y="-311.6" font-family="Times,serif" font-size="13.00">gen_binary(3,)</text>
<text text-anchor="start" x="2106.5" y="-291.6" font-family="Times,serif" font-size="13.00">ret: None</text>
<polygon fill="gray" stroke="gray" points="2085.5,-305 2085.5,-305 2190.5,-305 2190.5,-305 2085.5,-305"/>
</g>
<!-- 140077425890368&#45;&gt;140077425892416 -->
<g id="edge63" class="edge">
<title>140077425890368&#45;&gt;140077425892416</title>
<path fill="none" stroke="#050505" d="M2084.74,-299.78C1907.91,-285.66 1336.36,-240 1140.26,-224.33"/>
<polygon fill="#050505" stroke="#050505" points="1140.35,-220.83 1130.1,-223.52 1139.79,-227.81 1140.35,-220.83"/>
<text text-anchor="middle" x="1653" y="-259.6" font-family="Times,serif" font-size="8.00" fill="#999999">1 (⇑13)</text>
</g>
<!-- 140077425890368&#45;&gt;140077424060992 -->
<g id="edge64" class="edge">
<title>140077425890368&#45;&gt;140077424060992</title>
<path fill="none" stroke="#464646" d="M2137.5,-283.86C2137.5,-273.56 2137.5,-260.81 2137.5,-249.35"/>
<polygon fill="#464646" stroke="#464646" points="2141,-249.29 2137.5,-239.29 2134,-249.29 2141,-249.29"/>
<text text-anchor="middle" x="2156" y="-259.6" font-family="Times,serif" font-size="8.00" fill="#999999">14 (⇑26)</text>
</g>
<!-- 140077425890368&#45;&gt;140077424101440 -->
<g id="edge65" class="edge">
<title>140077425890368&#45;&gt;140077424101440</title>
<path fill="none" stroke="#878787" d="M2190.3,-299.67C2363.49,-285.46 2914.2,-240.27 3106.48,-224.5"/>
<polygon fill="#878787" stroke="#878787" points="3107.04,-227.96 3116.72,-223.66 3106.47,-220.99 3107.04,-227.96"/>
<text text-anchor="middle" x="2706" y="-259.6" font-family="Times,serif" font-size="8.00" fill="#999999">27 (⇑39)</text>
</g>
</g>
</svg>
