<?xml version="1.0" encoding="UTF-8" standalone="no"?>
<!DOCTYPE svg PUBLIC "-//W3C//DTD SVG 1.1//EN"
 "http://www.w3.org/Graphics/SVG/1.1/DTD/svg11.dtd">
<!-- Generated by graphviz version 2.43.0 (0)
 -->
<!-- Pages: 1 -->
<svg width="1115pt" height="595pt"
 viewBox="0.00 0.00 1115.00 595.00" xmlns="http://www.w3.org/2000/svg" xmlns:xlink="http://www.w3.org/1999/xlink">
<g id="graph0" class="graph" transform="scale(1 1) rotate(0) translate(4 591)">
<polygon fill="white" stroke="transparent" points="-4,4 -4,-591 1111,-591 1111,4 -4,4"/>
<text text-anchor="middle" x="553.5" y="-7.8" font-family="Times,serif" font-size="14.00" fill="gray">rcviz nodes=22</text>
<!-- 139936716415040 -->
<g id="node1" class="node">
<title>139936716415040</title>
<path fill="#eeeeee" stroke="transparent" d="M374.5,-371C374.5,-371 536.5,-371 536.5,-371 542.5,-371 548.5,-377 548.5,-383 548.5,-383 548.5,-401 548.5,-401 548.5,-407 542.5,-413 536.5,-413 536.5,-413 374.5,-413 374.5,-413 368.5,-413 362.5,-407 362.5,-401 362.5,-401 362.5,-383 362.5,-383 362.5,-377 368.5,-371 374.5,-371"/>
<text text-anchor="start" x="366.5" y="-398.6" font-family="Times,serif" font-size="13.00">bracket_sequence(3,((,2,0)</text>
<text text-anchor="start" x="424" y="-378.6" font-family="Times,serif" font-size="13.00">ret: None</text>
<polygon fill="gray" stroke="gray" points="362.5,-392 362.5,-392 548.5,-392 548.5,-392 362.5,-392"/>
</g>
<!-- 139936716450368 -->
<g id="node2" class="node">
<title>139936716450368</title>
<path fill="#eeeeee" stroke="transparent" d="M595.5,-371C595.5,-371 757.5,-371 757.5,-371 763.5,-371 769.5,-377 769.5,-383 769.5,-383 769.5,-401 769.5,-401 769.5,-407 763.5,-413 757.5,-413 757.5,-413 595.5,-413 595.5,-413 589.5,-413 583.5,-407 583.5,-401 583.5,-401 583.5,-383 583.5,-383 583.5,-377 589.5,-371 595.5,-371"/>
<text text-anchor="start" x="587.5" y="-398.6" font-family="Times,serif" font-size="13.00">bracket_sequence(3,(),1,1)</text>
<text text-anchor="start" x="645" y="-378.6" font-family="Times,serif" font-size="13.00">ret: None</text>
<polygon fill="gray" stroke="gray" points="583.5,-392 583.5,-392 769.5,-392 769.5,-392 583.5,-392"/>
</g>
<!-- 139936716415040&#45;&gt;139936716450368 -->
<!-- 139936716415552 -->
<g id="node3" class="node">
<title>139936716415552</title>
<path fill="#eeeeee" stroke="transparent" d="M143.5,-284C143.5,-284 311.5,-284 311.5,-284 317.5,-284 323.5,-290 323.5,-296 323.5,-296 323.5,-314 323.5,-314 323.5,-320 317.5,-326 311.5,-326 311.5,-326 143.5,-326 143.5,-326 137.5,-326 131.5,-320 131.5,-314 131.5,-314 131.5,-296 131.5,-296 131.5,-290 137.5,-284 143.5,-284"/>
<text text-anchor="start" x="135.5" y="-311.6" font-family="Times,serif" font-size="13.00">bracket_sequence(3,(((,3,0)</text>
<text text-anchor="start" x="196" y="-291.6" font-family="Times,serif" font-size="13.00">ret: None</text>
<polygon fill="gray" stroke="gray" points="131.5,-305 131.5,-305 323.5,-305 323.5,-305 131.5,-305"/>
</g>
<!-- 139936716415040&#45;&gt;139936716415552 -->
<g id="edge5" class="edge">
<title>139936716415040&#45;&gt;139936716415552</title>
<path fill="none" stroke="#1b1b1b" d="M401.76,-370.96C368.54,-358.58 325.75,-342.63 290.89,-329.63"/>
<polygon fill="#1b1b1b" stroke="#1b1b1b" points="291.87,-326.26 281.28,-326.05 289.43,-332.82 291.87,-326.26"/>
<text text-anchor="middle" x="361.5" y="-346.6" font-family="Times,serif" font-size="8.00" fill="#999999">3 (⇑4)</text>
</g>
<!-- 139936716417600 -->
<g id="node4" class="node">
<title>139936716417600</title>
<path fill="#eeeeee" stroke="transparent" d="M371.5,-284C371.5,-284 539.5,-284 539.5,-284 545.5,-284 551.5,-290 551.5,-296 551.5,-296 551.5,-314 551.5,-314 551.5,-320 545.5,-326 539.5,-326 539.5,-326 371.5,-326 371.5,-326 365.5,-326 359.5,-320 359.5,-314 359.5,-314 359.5,-296 359.5,-296 359.5,-290 365.5,-284 371.5,-284"/>
<text text-anchor="start" x="363.5" y="-311.6" font-family="Times,serif" font-size="13.00">bracket_sequence(3,((),2,1)</text>
<text text-anchor="start" x="424" y="-291.6" font-family="Times,serif" font-size="13.00">ret: None</text>
<polygon fill="gray" stroke="gray" points="359.5,-305 359.5,-305 551.5,-305 551.5,-305 359.5,-305"/>
</g>
<!-- 139936716415040&#45;&gt;139936716417600 -->
<g id="edge6" class="edge">
<title>139936716415040&#45;&gt;139936716417600</title>
<path fill="none" stroke="#3f3f3f" d="M455.5,-370.86C455.5,-360.56 455.5,-347.81 455.5,-336.35"/>
<polygon fill="#3f3f3f" stroke="#3f3f3f" points="459,-336.29 455.5,-326.29 452,-336.29 459,-336.29"/>
<text text-anchor="middle" x="471" y="-346.6" font-family="Times,serif" font-size="8.00" fill="#999999">7 (⇑11)</text>
</g>
<!-- 139936716450880 -->
<g id="node9" class="node">
<title>139936716450880</title>
<path fill="#eeeeee" stroke="transparent" d="M686.5,-284C686.5,-284 854.5,-284 854.5,-284 860.5,-284 866.5,-290 866.5,-296 866.5,-296 866.5,-314 866.5,-314 866.5,-320 860.5,-326 854.5,-326 854.5,-326 686.5,-326 686.5,-326 680.5,-326 674.5,-320 674.5,-314 674.5,-314 674.5,-296 674.5,-296 674.5,-290 680.5,-284 686.5,-284"/>
<text text-anchor="start" x="678.5" y="-311.6" font-family="Times,serif" font-size="13.00">bracket_sequence(3,()(,2,1)</text>
<text text-anchor="start" x="739" y="-291.6" font-family="Times,serif" font-size="13.00">ret: None</text>
<polygon fill="gray" stroke="gray" points="674.5,-305 674.5,-305 866.5,-305 866.5,-305 674.5,-305"/>
</g>
<!-- 139936716450368&#45;&gt;139936716450880 -->
<g id="edge7" class="edge">
<title>139936716450368&#45;&gt;139936716450880</title>
<path fill="none" stroke="#888888" d="M698.78,-370.86C711.21,-359.61 726.88,-345.45 740.39,-333.23"/>
<polygon fill="#888888" stroke="#888888" points="742.99,-335.6 748.06,-326.29 738.29,-330.4 742.99,-335.6"/>
<text text-anchor="middle" x="745" y="-346.6" font-family="Times,serif" font-size="8.00" fill="#999999">15 (⇑19)</text>
</g>
<!-- 139936716415552&#45;&gt;139936716417600 -->
<!-- 139936716416064 -->
<g id="node10" class="node">
<title>139936716416064</title>
<path fill="#eeeeee" stroke="transparent" d="M20,-197C20,-197 193,-197 193,-197 199,-197 205,-203 205,-209 205,-209 205,-227 205,-227 205,-233 199,-239 193,-239 193,-239 20,-239 20,-239 14,-239 8,-233 8,-227 8,-227 8,-209 8,-209 8,-203 14,-197 20,-197"/>
<text text-anchor="start" x="12.5" y="-224.6" font-family="Times,serif" font-size="13.00">bracket_sequence(3,(((),3,1)</text>
<text text-anchor="start" x="75.5" y="-204.6" font-family="Times,serif" font-size="13.00">ret: None</text>
<polygon fill="gray" stroke="gray" points="8.5,-218 8.5,-218 205.5,-218 205.5,-218 8.5,-218"/>
</g>
<!-- 139936716415552&#45;&gt;139936716416064 -->
<g id="edge8" class="edge">
<title>139936716415552&#45;&gt;139936716416064</title>
<path fill="none" stroke="#242424" d="M198.82,-283.86C182.37,-272.3 161.52,-257.65 143.8,-245.2"/>
<polygon fill="#242424" stroke="#242424" points="145.58,-242.18 135.39,-239.29 141.56,-247.91 145.58,-242.18"/>
<text text-anchor="middle" x="184.5" y="-259.6" font-family="Times,serif" font-size="8.00" fill="#999999">4 (⇑3)</text>
</g>
<!-- 139936716418112 -->
<g id="node5" class="node">
<title>139936716418112</title>
<path fill="#eeeeee" stroke="transparent" d="M236,-197C236,-197 409,-197 409,-197 415,-197 421,-203 421,-209 421,-209 421,-227 421,-227 421,-233 415,-239 409,-239 409,-239 236,-239 236,-239 230,-239 224,-233 224,-227 224,-227 224,-209 224,-209 224,-203 230,-197 236,-197"/>
<text text-anchor="start" x="228.5" y="-224.6" font-family="Times,serif" font-size="13.00">bracket_sequence(3,(()(,3,1)</text>
<text text-anchor="start" x="291.5" y="-204.6" font-family="Times,serif" font-size="13.00">ret: None</text>
<polygon fill="gray" stroke="gray" points="224.5,-218 224.5,-218 421.5,-218 421.5,-218 224.5,-218"/>
</g>
<!-- 139936716417600&#45;&gt;139936716418112 -->
<g id="edge9" class="edge">
<title>139936716417600&#45;&gt;139936716418112</title>
<path fill="none" stroke="#484848" d="M423.98,-283.86C405.65,-272.14 382.35,-257.25 362.71,-244.7"/>
<polygon fill="#484848" stroke="#484848" points="364.56,-241.73 354.25,-239.29 360.8,-247.63 364.56,-241.73"/>
<text text-anchor="middle" x="406.5" y="-259.6" font-family="Times,serif" font-size="8.00" fill="#999999">8 (⇑7)</text>
</g>
<!-- 139936716448832 -->
<g id="node6" class="node">
<title>139936716448832</title>
<path fill="#eeeeee" stroke="transparent" d="M469,-197C469,-197 642,-197 642,-197 648,-197 654,-203 654,-209 654,-209 654,-227 654,-227 654,-233 648,-239 642,-239 642,-239 469,-239 469,-239 463,-239 457,-233 457,-227 457,-227 457,-209 457,-209 457,-203 463,-197 469,-197"/>
<text text-anchor="start" x="461.5" y="-224.6" font-family="Times,serif" font-size="13.00">bracket_sequence(3,(()),2,2)</text>
<text text-anchor="start" x="524.5" y="-204.6" font-family="Times,serif" font-size="13.00">ret: None</text>
<polygon fill="gray" stroke="gray" points="457.5,-218 457.5,-218 654.5,-218 654.5,-218 457.5,-218"/>
</g>
<!-- 139936716417600&#45;&gt;139936716448832 -->
<g id="edge10" class="edge">
<title>139936716417600&#45;&gt;139936716448832</title>
<path fill="none" stroke="#646464" d="M479.2,-283.86C492.55,-272.51 509.4,-258.18 523.87,-245.89"/>
<polygon fill="#646464" stroke="#646464" points="526.27,-248.44 531.62,-239.29 521.74,-243.1 526.27,-248.44"/>
<text text-anchor="middle" x="527" y="-259.6" font-family="Times,serif" font-size="8.00" fill="#999999">11 (⇑10)</text>
</g>
<!-- 139936716418112&#45;&gt;139936716448832 -->
<!-- 139936716447808 -->
<g id="node11" class="node">
<title>139936716447808</title>
<path fill="#eeeeee" stroke="transparent" d="M236.5,-110C236.5,-110 414.5,-110 414.5,-110 420.5,-110 426.5,-116 426.5,-122 426.5,-122 426.5,-140 426.5,-140 426.5,-146 420.5,-152 414.5,-152 414.5,-152 236.5,-152 236.5,-152 230.5,-152 224.5,-146 224.5,-140 224.5,-140 224.5,-122 224.5,-122 224.5,-116 230.5,-110 236.5,-110"/>
<text text-anchor="start" x="228.5" y="-137.6" font-family="Times,serif" font-size="13.00">bracket_sequence(3,(()(),3,2)</text>
<text text-anchor="start" x="294" y="-117.6" font-family="Times,serif" font-size="13.00">ret: None</text>
<polygon fill="gray" stroke="gray" points="224.5,-131 224.5,-131 426.5,-131 426.5,-131 224.5,-131"/>
</g>
<!-- 139936716418112&#45;&gt;139936716447808 -->
<g id="edge11" class="edge">
<title>139936716418112&#45;&gt;139936716447808</title>
<path fill="none" stroke="#515151" d="M323.21,-196.86C323.57,-186.56 324.02,-173.81 324.43,-162.35"/>
<polygon fill="#515151" stroke="#515151" points="327.93,-162.41 324.78,-152.29 320.93,-162.16 327.93,-162.41"/>
<text text-anchor="middle" x="337.5" y="-172.6" font-family="Times,serif" font-size="8.00" fill="#999999">9 (⇑6)</text>
</g>
<!-- 139936716449344 -->
<g id="node12" class="node">
<title>139936716449344</title>
<path fill="#eeeeee" stroke="transparent" d="M465.5,-110C465.5,-110 643.5,-110 643.5,-110 649.5,-110 655.5,-116 655.5,-122 655.5,-122 655.5,-140 655.5,-140 655.5,-146 649.5,-152 643.5,-152 643.5,-152 465.5,-152 465.5,-152 459.5,-152 453.5,-146 453.5,-140 453.5,-140 453.5,-122 453.5,-122 453.5,-116 459.5,-110 465.5,-110"/>
<text text-anchor="start" x="457.5" y="-137.6" font-family="Times,serif" font-size="13.00">bracket_sequence(3,(())(,3,2)</text>
<text text-anchor="start" x="523" y="-117.6" font-family="Times,serif" font-size="13.00">ret: None</text>
<polygon fill="gray" stroke="gray" points="453.5,-131 453.5,-131 655.5,-131 655.5,-131 453.5,-131"/>
</g>
<!-- 139936716448832&#45;&gt;139936716449344 -->
<g id="edge12" class="edge">
<title>139936716448832&#45;&gt;139936716449344</title>
<path fill="none" stroke="#6d6d6d" d="M555.26,-196.86C555.14,-186.56 554.99,-173.81 554.86,-162.35"/>
<polygon fill="#6d6d6d" stroke="#6d6d6d" points="558.36,-162.25 554.74,-152.29 551.36,-162.33 558.36,-162.25"/>
<text text-anchor="middle" x="571" y="-172.6" font-family="Times,serif" font-size="8.00" fill="#999999">12 (⇑9)</text>
</g>
<!-- 139936716472384 -->
<g id="node7" class="node">
<title>139936716472384</title>
<path fill="#eeeeee" stroke="transparent" d="M684,-197C684,-197 857,-197 857,-197 863,-197 869,-203 869,-209 869,-209 869,-227 869,-227 869,-233 863,-239 857,-239 857,-239 684,-239 684,-239 678,-239 672,-233 672,-227 672,-227 672,-209 672,-209 672,-203 678,-197 684,-197"/>
<text text-anchor="start" x="676.5" y="-224.6" font-family="Times,serif" font-size="13.00">bracket_sequence(3,()((,3,1)</text>
<text text-anchor="start" x="739.5" y="-204.6" font-family="Times,serif" font-size="13.00">ret: None</text>
<polygon fill="gray" stroke="gray" points="672.5,-218 672.5,-218 869.5,-218 869.5,-218 672.5,-218"/>
</g>
<!-- 139936716473920 -->
<g id="node8" class="node">
<title>139936716473920</title>
<path fill="#eeeeee" stroke="transparent" d="M917,-197C917,-197 1090,-197 1090,-197 1096,-197 1102,-203 1102,-209 1102,-209 1102,-227 1102,-227 1102,-233 1096,-239 1090,-239 1090,-239 917,-239 917,-239 911,-239 905,-233 905,-227 905,-227 905,-209 905,-209 905,-203 911,-197 917,-197"/>
<text text-anchor="start" x="909.5" y="-224.6" font-family="Times,serif" font-size="13.00">bracket_sequence(3,()(),2,2)</text>
<text text-anchor="start" x="972.5" y="-204.6" font-family="Times,serif" font-size="13.00">ret: None</text>
<polygon fill="gray" stroke="gray" points="905.5,-218 905.5,-218 1102.5,-218 1102.5,-218 905.5,-218"/>
</g>
<!-- 139936716472384&#45;&gt;139936716473920 -->
<!-- 139936716472896 -->
<g id="node13" class="node">
<title>139936716472896</title>
<path fill="#eeeeee" stroke="transparent" d="M687.5,-110C687.5,-110 865.5,-110 865.5,-110 871.5,-110 877.5,-116 877.5,-122 877.5,-122 877.5,-140 877.5,-140 877.5,-146 871.5,-152 865.5,-152 865.5,-152 687.5,-152 687.5,-152 681.5,-152 675.5,-146 675.5,-140 675.5,-140 675.5,-122 675.5,-122 675.5,-116 681.5,-110 687.5,-110"/>
<text text-anchor="start" x="679.5" y="-137.6" font-family="Times,serif" font-size="13.00">bracket_sequence(3,()((),3,2)</text>
<text text-anchor="start" x="745" y="-117.6" font-family="Times,serif" font-size="13.00">ret: None</text>
<polygon fill="gray" stroke="gray" points="675.5,-131 675.5,-131 877.5,-131 877.5,-131 675.5,-131"/>
</g>
<!-- 139936716472384&#45;&gt;139936716472896 -->
<g id="edge13" class="edge">
<title>139936716472384&#45;&gt;139936716472896</title>
<path fill="none" stroke="#9a9a9a" d="M771.92,-196.86C772.65,-186.56 773.55,-173.81 774.36,-162.35"/>
<polygon fill="#9a9a9a" stroke="#9a9a9a" points="777.85,-162.52 775.07,-152.29 770.87,-162.02 777.85,-162.52"/>
<text text-anchor="middle" x="793" y="-172.6" font-family="Times,serif" font-size="8.00" fill="#999999">17 (⇑14)</text>
</g>
<!-- 139936716474432 -->
<g id="node14" class="node">
<title>139936716474432</title>
<path fill="#eeeeee" stroke="transparent" d="M914.5,-110C914.5,-110 1092.5,-110 1092.5,-110 1098.5,-110 1104.5,-116 1104.5,-122 1104.5,-122 1104.5,-140 1104.5,-140 1104.5,-146 1098.5,-152 1092.5,-152 1092.5,-152 914.5,-152 914.5,-152 908.5,-152 902.5,-146 902.5,-140 902.5,-140 902.5,-122 902.5,-122 902.5,-116 908.5,-110 914.5,-110"/>
<text text-anchor="start" x="906.5" y="-137.6" font-family="Times,serif" font-size="13.00">bracket_sequence(3,()()(,3,2)</text>
<text text-anchor="start" x="972" y="-117.6" font-family="Times,serif" font-size="13.00">ret: None</text>
<polygon fill="gray" stroke="gray" points="902.5,-131 902.5,-131 1104.5,-131 1104.5,-131 902.5,-131"/>
</g>
<!-- 139936716473920&#45;&gt;139936716474432 -->
<g id="edge14" class="edge">
<title>139936716473920&#45;&gt;139936716474432</title>
<path fill="none" stroke="#b5b5b5" d="M1003.5,-196.86C1003.5,-186.56 1003.5,-173.81 1003.5,-162.35"/>
<polygon fill="#b5b5b5" stroke="#b5b5b5" points="1007,-162.29 1003.5,-152.29 1000,-162.29 1007,-162.29"/>
<text text-anchor="middle" x="1022" y="-172.6" font-family="Times,serif" font-size="8.00" fill="#999999">20 (⇑17)</text>
</g>
<!-- 139936716450880&#45;&gt;139936716472384 -->
<g id="edge15" class="edge">
<title>139936716450880&#45;&gt;139936716472384</title>
<path fill="none" stroke="#919191" d="M770.5,-283.86C770.5,-273.56 770.5,-260.81 770.5,-249.35"/>
<polygon fill="#919191" stroke="#919191" points="774,-249.29 770.5,-239.29 767,-249.29 774,-249.29"/>
<text text-anchor="middle" x="789" y="-259.6" font-family="Times,serif" font-size="8.00" fill="#999999">16 (⇑15)</text>
</g>
<!-- 139936716450880&#45;&gt;139936716473920 -->
<g id="edge16" class="edge">
<title>139936716450880&#45;&gt;139936716473920</title>
<path fill="none" stroke="#acacac" d="M825.42,-283.96C859.36,-271.58 903.09,-255.63 938.72,-242.63"/>
<polygon fill="#acacac" stroke="#acacac" points="940.35,-245.76 948.54,-239.05 937.95,-239.19 940.35,-245.76"/>
<text text-anchor="middle" x="912" y="-259.6" font-family="Times,serif" font-size="8.00" fill="#999999">19 (⇑18)</text>
</g>
<!-- 139936716416576 -->
<g id="node15" class="node">
<title>139936716416576</title>
<path fill="#eeeeee" stroke="transparent" d="M14.5,-110C14.5,-110 192.5,-110 192.5,-110 198.5,-110 204.5,-116 204.5,-122 204.5,-122 204.5,-140 204.5,-140 204.5,-146 198.5,-152 192.5,-152 192.5,-152 14.5,-152 14.5,-152 8.5,-152 2.5,-146 2.5,-140 2.5,-140 2.5,-122 2.5,-122 2.5,-116 8.5,-110 14.5,-110"/>
<text text-anchor="start" x="6.5" y="-137.6" font-family="Times,serif" font-size="13.00">bracket_sequence(3,((()),3,2)</text>
<text text-anchor="start" x="72" y="-117.6" font-family="Times,serif" font-size="13.00">ret: None</text>
<polygon fill="gray" stroke="gray" points="2.5,-131 2.5,-131 204.5,-131 204.5,-131 2.5,-131"/>
</g>
<!-- 139936716416064&#45;&gt;139936716416576 -->
<g id="edge17" class="edge">
<title>139936716416064&#45;&gt;139936716416576</title>
<path fill="none" stroke="#2d2d2d" d="M105.79,-196.86C105.43,-186.56 104.98,-173.81 104.57,-162.35"/>
<polygon fill="#2d2d2d" stroke="#2d2d2d" points="108.07,-162.16 104.22,-152.29 101.07,-162.41 108.07,-162.16"/>
<text text-anchor="middle" x="118.5" y="-172.6" font-family="Times,serif" font-size="8.00" fill="#999999">5 (⇑2)</text>
</g>
<!-- 139936716448320 -->
<g id="node16" class="node">
<title>139936716448320</title>
<path fill="#eeeeee" stroke="transparent" d="M237,-23C237,-23 420,-23 420,-23 426,-23 432,-29 432,-35 432,-35 432,-53 432,-53 432,-59 426,-65 420,-65 420,-65 237,-65 237,-65 231,-65 225,-59 225,-53 225,-53 225,-35 225,-35 225,-29 231,-23 237,-23"/>
<text text-anchor="start" x="229.5" y="-50.6" font-family="Times,serif" font-size="13.00">bracket_sequence(3,(()()),3,3)</text>
<text text-anchor="start" x="297.5" y="-30.6" font-family="Times,serif" font-size="13.00">ret: None</text>
<polygon fill="gray" stroke="gray" points="225.5,-44 225.5,-44 432.5,-44 432.5,-44 225.5,-44"/>
</g>
<!-- 139936716447808&#45;&gt;139936716448320 -->
<g id="edge18" class="edge">
<title>139936716447808&#45;&gt;139936716448320</title>
<path fill="none" stroke="#5a5a5a" d="M326.21,-109.86C326.57,-99.56 327.02,-86.81 327.43,-75.35"/>
<polygon fill="#5a5a5a" stroke="#5a5a5a" points="330.93,-75.41 327.78,-65.29 323.93,-75.16 330.93,-75.41"/>
<text text-anchor="middle" x="343" y="-85.6" font-family="Times,serif" font-size="8.00" fill="#999999">10 (⇑5)</text>
</g>
<!-- 139936716449856 -->
<g id="node17" class="node">
<title>139936716449856</title>
<path fill="#eeeeee" stroke="transparent" d="M462,-23C462,-23 645,-23 645,-23 651,-23 657,-29 657,-35 657,-35 657,-53 657,-53 657,-59 651,-65 645,-65 645,-65 462,-65 462,-65 456,-65 450,-59 450,-53 450,-53 450,-35 450,-35 450,-29 456,-23 462,-23"/>
<text text-anchor="start" x="454.5" y="-50.6" font-family="Times,serif" font-size="13.00">bracket_sequence(3,(())(),3,3)</text>
<text text-anchor="start" x="522.5" y="-30.6" font-family="Times,serif" font-size="13.00">ret: None</text>
<polygon fill="gray" stroke="gray" points="450.5,-44 450.5,-44 657.5,-44 657.5,-44 450.5,-44"/>
</g>
<!-- 139936716449344&#45;&gt;139936716449856 -->
<g id="edge19" class="edge">
<title>139936716449344&#45;&gt;139936716449856</title>
<path fill="none" stroke="#767676" d="M554.26,-109.86C554.14,-99.56 553.99,-86.81 553.86,-75.35"/>
<polygon fill="#767676" stroke="#767676" points="557.36,-75.25 553.74,-65.29 550.36,-75.33 557.36,-75.25"/>
<text text-anchor="middle" x="570" y="-85.6" font-family="Times,serif" font-size="8.00" fill="#999999">13 (⇑8)</text>
</g>
<!-- 139936716473408 -->
<g id="node18" class="node">
<title>139936716473408</title>
<path fill="#eeeeee" stroke="transparent" d="M687,-23C687,-23 870,-23 870,-23 876,-23 882,-29 882,-35 882,-35 882,-53 882,-53 882,-59 876,-65 870,-65 870,-65 687,-65 687,-65 681,-65 675,-59 675,-53 675,-53 675,-35 675,-35 675,-29 681,-23 687,-23"/>
<text text-anchor="start" x="679.5" y="-50.6" font-family="Times,serif" font-size="13.00">bracket_sequence(3,()(()),3,3)</text>
<text text-anchor="start" x="747.5" y="-30.6" font-family="Times,serif" font-size="13.00">ret: None</text>
<polygon fill="gray" stroke="gray" points="675.5,-44 675.5,-44 882.5,-44 882.5,-44 675.5,-44"/>
</g>
<!-- 139936716472896&#45;&gt;139936716473408 -->
<g id="edge20" class="edge">
<title>139936716472896&#45;&gt;139936716473408</title>
<path fill="none" stroke="#a3a3a3" d="M776.97,-109.86C777.22,-99.56 777.52,-86.81 777.79,-75.35"/>
<polygon fill="#a3a3a3" stroke="#a3a3a3" points="781.29,-75.37 778.02,-65.29 774.29,-75.21 781.29,-75.37"/>
<text text-anchor="middle" x="797" y="-85.6" font-family="Times,serif" font-size="8.00" fill="#999999">18 (⇑13)</text>
</g>
<!-- 139936716474944 -->
<g id="node19" class="node">
<title>139936716474944</title>
<path fill="#eeeeee" stroke="transparent" d="M912,-23C912,-23 1095,-23 1095,-23 1101,-23 1107,-29 1107,-35 1107,-35 1107,-53 1107,-53 1107,-59 1101,-65 1095,-65 1095,-65 912,-65 912,-65 906,-65 900,-59 900,-53 900,-53 900,-35 900,-35 900,-29 906,-23 912,-23"/>
<text text-anchor="start" x="904.5" y="-50.6" font-family="Times,serif" font-size="13.00">bracket_sequence(3,()()(),3,3)</text>
<text text-anchor="start" x="972.5" y="-30.6" font-family="Times,serif" font-size="13.00">ret: None</text>
<polygon fill="gray" stroke="gray" points="900.5,-44 900.5,-44 1107.5,-44 1107.5,-44 900.5,-44"/>
</g>
<!-- 139936716474432&#45;&gt;139936716474944 -->
<g id="edge21" class="edge">
<title>139936716474432&#45;&gt;139936716474944</title>
<path fill="none" stroke="#bebebe" d="M1003.5,-109.86C1003.5,-99.56 1003.5,-86.81 1003.5,-75.35"/>
<polygon fill="#bebebe" stroke="#bebebe" points="1007,-75.29 1003.5,-65.29 1000,-75.29 1007,-75.29"/>
<text text-anchor="middle" x="1022" y="-85.6" font-family="Times,serif" font-size="8.00" fill="#999999">21 (⇑16)</text>
</g>
<!-- 139936716417088 -->
<g id="node22" class="node">
<title>139936716417088</title>
<path fill="#eeeeee" stroke="transparent" d="M12,-23C12,-23 195,-23 195,-23 201,-23 207,-29 207,-35 207,-35 207,-53 207,-53 207,-59 201,-65 195,-65 195,-65 12,-65 12,-65 6,-65 0,-59 0,-53 0,-53 0,-35 0,-35 0,-29 6,-23 12,-23"/>
<text text-anchor="start" x="4.5" y="-50.6" font-family="Times,serif" font-size="13.00">bracket_sequence(3,((())),3,3)</text>
<text text-anchor="start" x="72.5" y="-30.6" font-family="Times,serif" font-size="13.00">ret: None</text>
<polygon fill="gray" stroke="gray" points="0.5,-44 0.5,-44 207.5,-44 207.5,-44 0.5,-44"/>
</g>
<!-- 139936716416576&#45;&gt;139936716417088 -->
<g id="edge25" class="edge">
<title>139936716416576&#45;&gt;139936716417088</title>
<path fill="none" stroke="#363636" d="M103.5,-109.86C103.5,-99.56 103.5,-86.81 103.5,-75.35"/>
<polygon fill="#363636" stroke="#363636" points="107,-75.29 103.5,-65.29 100,-75.29 107,-75.29"/>
<text text-anchor="middle" x="116.5" y="-85.6" font-family="Times,serif" font-size="8.00" fill="#999999">6 (⇑1)</text>
</g>
<!-- 139936718115904 -->
<g id="node20" class="node">
<title>139936718115904</title>
<path fill="#eeeeee" stroke="transparent" d="M504.5,-545C504.5,-545 626.5,-545 626.5,-545 632.5,-545 638.5,-551 638.5,-557 638.5,-557 638.5,-575 638.5,-575 638.5,-581 632.5,-587 626.5,-587 626.5,-587 504.5,-587 504.5,-587 498.5,-587 492.5,-581 492.5,-575 492.5,-575 492.5,-557 492.5,-557 492.5,-551 498.5,-545 504.5,-545"/>
<text text-anchor="start" x="496.5" y="-572.6" font-family="Times,serif" font-size="13.00">bracket_sequence(3)</text>
<text text-anchor="start" x="534" y="-552.6" font-family="Times,serif" font-size="13.00">ret: None</text>
<polygon fill="gray" stroke="gray" points="492.5,-566 492.5,-566 638.5,-566 638.5,-566 492.5,-566"/>
</g>
<!-- 139936718117952 -->
<g id="node21" class="node">
<title>139936718117952</title>
<path fill="#eeeeee" stroke="transparent" d="M487,-458C487,-458 644,-458 644,-458 650,-458 656,-464 656,-470 656,-470 656,-488 656,-488 656,-494 650,-500 644,-500 644,-500 487,-500 487,-500 481,-500 475,-494 475,-488 475,-488 475,-470 475,-470 475,-464 481,-458 487,-458"/>
<text text-anchor="start" x="479.5" y="-485.6" font-family="Times,serif" font-size="13.00">bracket_sequence(3,(,1,0)</text>
<text text-anchor="start" x="534.5" y="-465.6" font-family="Times,serif" font-size="13.00">ret: None</text>
<polygon fill="gray" stroke="gray" points="475.5,-479 475.5,-479 656.5,-479 656.5,-479 475.5,-479"/>
</g>
<!-- 139936718115904&#45;&gt;139936718117952 -->
<g id="edge22" class="edge">
<title>139936718115904&#45;&gt;139936718117952</title>
<path fill="none" stroke="#090909" d="M565.5,-544.86C565.5,-534.56 565.5,-521.81 565.5,-510.35"/>
<polygon fill="#090909" stroke="#090909" points="569,-510.29 565.5,-500.29 562,-510.29 569,-510.29"/>
<text text-anchor="middle" x="581" y="-520.6" font-family="Times,serif" font-size="8.00" fill="#999999">1 (⇑21)</text>
</g>
<!-- 139936718117952&#45;&gt;139936716415040 -->
<g id="edge23" class="edge">
<title>139936718117952&#45;&gt;139936716415040</title>
<path fill="none" stroke="#121212" d="M539.43,-457.86C524.61,-446.4 505.86,-431.92 489.85,-419.54"/>
<polygon fill="#121212" stroke="#121212" points="491.82,-416.64 481.76,-413.29 487.54,-422.18 491.82,-416.64"/>
<text text-anchor="middle" x="530" y="-433.6" font-family="Times,serif" font-size="8.00" fill="#999999">2 (⇑12)</text>
</g>
<!-- 139936718117952&#45;&gt;139936716450368 -->
<g id="edge24" class="edge">
<title>139936718117952&#45;&gt;139936716450368</title>
<path fill="none" stroke="#7f7f7f" d="M591.81,-457.86C606.76,-446.4 625.68,-431.92 641.84,-419.54"/>
<polygon fill="#7f7f7f" stroke="#7f7f7f" points="644.19,-422.15 650,-413.29 639.93,-416.59 644.19,-422.15"/>
<text text-anchor="middle" x="643" y="-433.6" font-family="Times,serif" font-size="8.00" fill="#999999">14 (⇑20)</text>
</g>
</g>
</svg>
