<?xml version="1.0" encoding="UTF-8" standalone="no"?>
<!DOCTYPE svg PUBLIC "-//W3C//DTD SVG 1.1//EN"
 "http://www.w3.org/Graphics/SVG/1.1/DTD/svg11.dtd">
<!-- Generated by graphviz version 2.43.0 (0)
 -->
<!-- Pages: 1 -->
<svg width="3759pt" height="247pt"
 viewBox="0.00 0.00 3758.50 247.00" xmlns="http://www.w3.org/2000/svg" xmlns:xlink="http://www.w3.org/1999/xlink">
<g id="graph0" class="graph" transform="scale(1 1) rotate(0) translate(4 243)">
<polygon fill="white" stroke="transparent" points="-4,4 -4,-243 3754.5,-243 3754.5,4 -4,4"/>
<text text-anchor="middle" x="1875.25" y="-7.8" font-family="Times,serif" font-size="14.00" fill="gray">rcviz nodes=13</text>
<!-- 140017763187776 -->
<g id="node1" class="node">
<title>140017763187776</title>
<path fill="#eeeeee" stroke="transparent" d="M861,-110C861,-110 1227,-110 1227,-110 1233,-110 1239,-116 1239,-122 1239,-122 1239,-140 1239,-140 1239,-146 1233,-152 1227,-152 1227,-152 861,-152 861,-152 855,-152 849,-146 849,-140 849,-140 849,-122 849,-122 849,-116 855,-110 861,-110"/>
<text text-anchor="start" x="853" y="-137.6" font-family="Times,serif" font-size="13.00">backtrack(3,a,[&#39;ad&#39;, &#39;ae&#39;, &#39;af&#39;, &#39;bd&#39;, &#39;be&#39;, &#39;bf&#39;, &#39;cd&#39;, &#39;ce&#39;, &#39;cf&#39;])</text>
<text text-anchor="start" x="1012.5" y="-117.6" font-family="Times,serif" font-size="13.00">ret: None</text>
<polygon fill="gray" stroke="gray" points="849,-131 849,-131 1239,-131 1239,-131 849,-131"/>
</g>
<!-- 140017761510976 -->
<g id="node2" class="node">
<title>140017761510976</title>
<path fill="#eeeeee" stroke="transparent" d="M1693.5,-110C1693.5,-110 2060.5,-110 2060.5,-110 2066.5,-110 2072.5,-116 2072.5,-122 2072.5,-122 2072.5,-140 2072.5,-140 2072.5,-146 2066.5,-152 2060.5,-152 2060.5,-152 1693.5,-152 1693.5,-152 1687.5,-152 1681.5,-146 1681.5,-140 1681.5,-140 1681.5,-122 1681.5,-122 1681.5,-116 1687.5,-110 1693.5,-110"/>
<text text-anchor="start" x="1686" y="-137.6" font-family="Times,serif" font-size="13.00">backtrack(3,b,[&#39;ad&#39;, &#39;ae&#39;, &#39;af&#39;, &#39;bd&#39;, &#39;be&#39;, &#39;bf&#39;, &#39;cd&#39;, &#39;ce&#39;, &#39;cf&#39;])</text>
<text text-anchor="start" x="1846" y="-117.6" font-family="Times,serif" font-size="13.00">ret: None</text>
<polygon fill="gray" stroke="gray" points="1682,-131 1682,-131 2073,-131 2073,-131 1682,-131"/>
</g>
<!-- 140017763187776&#45;&gt;140017761510976 -->
<!-- 140017761509440 -->
<g id="node4" class="node">
<title>140017761509440</title>
<path fill="#eeeeee" stroke="transparent" d="M12,-23C12,-23 378,-23 378,-23 384,-23 390,-29 390,-35 390,-35 390,-53 390,-53 390,-59 384,-65 378,-65 378,-65 12,-65 12,-65 6,-65 0,-59 0,-53 0,-53 0,-35 0,-35 0,-29 6,-23 12,-23"/>
<text text-anchor="start" x="4" y="-50.6" font-family="Times,serif" font-size="13.00">backtrack(,ad,[&#39;ad&#39;, &#39;ae&#39;, &#39;af&#39;, &#39;bd&#39;, &#39;be&#39;, &#39;bf&#39;, &#39;cd&#39;, &#39;ce&#39;, &#39;cf&#39;])</text>
<text text-anchor="start" x="163.5" y="-30.6" font-family="Times,serif" font-size="13.00">ret: None</text>
<polygon fill="gray" stroke="gray" points="0,-44 0,-44 390,-44 390,-44 0,-44"/>
</g>
<!-- 140017763187776&#45;&gt;140017761509440 -->
<g id="edge9" class="edge">
<title>140017763187776&#45;&gt;140017761509440</title>
<path fill="none" stroke="#1e1e1e" d="M848.96,-110.47C714.74,-97.04 536.77,-79.22 400.38,-65.56"/>
<polygon fill="#1e1e1e" stroke="#1e1e1e" points="400.52,-62.06 390.22,-64.54 399.82,-69.02 400.52,-62.06"/>
<text text-anchor="middle" x="658" y="-85.6" font-family="Times,serif" font-size="8.00" fill="#999999">2 (⇑1)</text>
</g>
<!-- 140017761509952 -->
<g id="node5" class="node">
<title>140017761509952</title>
<path fill="#eeeeee" stroke="transparent" d="M437,-23C437,-23 803,-23 803,-23 809,-23 815,-29 815,-35 815,-35 815,-53 815,-53 815,-59 809,-65 803,-65 803,-65 437,-65 437,-65 431,-65 425,-59 425,-53 425,-53 425,-35 425,-35 425,-29 431,-23 437,-23"/>
<text text-anchor="start" x="429" y="-50.6" font-family="Times,serif" font-size="13.00">backtrack(,ae,[&#39;ad&#39;, &#39;ae&#39;, &#39;af&#39;, &#39;bd&#39;, &#39;be&#39;, &#39;bf&#39;, &#39;cd&#39;, &#39;ce&#39;, &#39;cf&#39;])</text>
<text text-anchor="start" x="588.5" y="-30.6" font-family="Times,serif" font-size="13.00">ret: None</text>
<polygon fill="gray" stroke="gray" points="425,-44 425,-44 815,-44 815,-44 425,-44"/>
</g>
<!-- 140017763187776&#45;&gt;140017761509952 -->
<g id="edge10" class="edge">
<title>140017763187776&#45;&gt;140017761509952</title>
<path fill="none" stroke="#2e2e2e" d="M944.05,-109.96C879.78,-97.08 796.22,-80.33 730.06,-67.06"/>
<polygon fill="#2e2e2e" stroke="#2e2e2e" points="730.5,-63.58 720.01,-65.05 729.12,-70.45 730.5,-63.58"/>
<text text-anchor="middle" x="858" y="-85.6" font-family="Times,serif" font-size="8.00" fill="#999999">3 (⇑2)</text>
</g>
<!-- 140017761510464 -->
<g id="node6" class="node">
<title>140017761510464</title>
<path fill="#eeeeee" stroke="transparent" d="M862.5,-23C862.5,-23 1225.5,-23 1225.5,-23 1231.5,-23 1237.5,-29 1237.5,-35 1237.5,-35 1237.5,-53 1237.5,-53 1237.5,-59 1231.5,-65 1225.5,-65 1225.5,-65 862.5,-65 862.5,-65 856.5,-65 850.5,-59 850.5,-53 850.5,-53 850.5,-35 850.5,-35 850.5,-29 856.5,-23 862.5,-23"/>
<text text-anchor="start" x="855" y="-50.6" font-family="Times,serif" font-size="13.00">backtrack(,af,[&#39;ad&#39;, &#39;ae&#39;, &#39;af&#39;, &#39;bd&#39;, &#39;be&#39;, &#39;bf&#39;, &#39;cd&#39;, &#39;ce&#39;, &#39;cf&#39;])</text>
<text text-anchor="start" x="1013" y="-30.6" font-family="Times,serif" font-size="13.00">ret: None</text>
<polygon fill="gray" stroke="gray" points="851,-44 851,-44 1238,-44 1238,-44 851,-44"/>
</g>
<!-- 140017763187776&#45;&gt;140017761510464 -->
<g id="edge11" class="edge">
<title>140017763187776&#45;&gt;140017761510464</title>
<path fill="none" stroke="#3d3d3d" d="M1044,-109.86C1044,-99.56 1044,-86.81 1044,-75.35"/>
<polygon fill="#3d3d3d" stroke="#3d3d3d" points="1047.5,-75.29 1044,-65.29 1040.5,-75.29 1047.5,-75.29"/>
<text text-anchor="middle" x="1057" y="-85.6" font-family="Times,serif" font-size="8.00" fill="#999999">4 (⇑3)</text>
</g>
<!-- 140017761538112 -->
<g id="node3" class="node">
<title>140017761538112</title>
<path fill="#eeeeee" stroke="transparent" d="M2525,-110C2525,-110 2891,-110 2891,-110 2897,-110 2903,-116 2903,-122 2903,-122 2903,-140 2903,-140 2903,-146 2897,-152 2891,-152 2891,-152 2525,-152 2525,-152 2519,-152 2513,-146 2513,-140 2513,-140 2513,-122 2513,-122 2513,-116 2519,-110 2525,-110"/>
<text text-anchor="start" x="2517" y="-137.6" font-family="Times,serif" font-size="13.00">backtrack(3,c,[&#39;ad&#39;, &#39;ae&#39;, &#39;af&#39;, &#39;bd&#39;, &#39;be&#39;, &#39;bf&#39;, &#39;cd&#39;, &#39;ce&#39;, &#39;cf&#39;])</text>
<text text-anchor="start" x="2676.5" y="-117.6" font-family="Times,serif" font-size="13.00">ret: None</text>
<polygon fill="gray" stroke="gray" points="2513,-131 2513,-131 2903,-131 2903,-131 2513,-131"/>
</g>
<!-- 140017761510976&#45;&gt;140017761538112 -->
<!-- 140017761511488 -->
<g id="node7" class="node">
<title>140017761511488</title>
<path fill="#eeeeee" stroke="transparent" d="M1267.5,-23C1267.5,-23 1634.5,-23 1634.5,-23 1640.5,-23 1646.5,-29 1646.5,-35 1646.5,-35 1646.5,-53 1646.5,-53 1646.5,-59 1640.5,-65 1634.5,-65 1634.5,-65 1267.5,-65 1267.5,-65 1261.5,-65 1255.5,-59 1255.5,-53 1255.5,-53 1255.5,-35 1255.5,-35 1255.5,-29 1261.5,-23 1267.5,-23"/>
<text text-anchor="start" x="1260" y="-50.6" font-family="Times,serif" font-size="13.00">backtrack(,bd,[&#39;ad&#39;, &#39;ae&#39;, &#39;af&#39;, &#39;bd&#39;, &#39;be&#39;, &#39;bf&#39;, &#39;cd&#39;, &#39;ce&#39;, &#39;cf&#39;])</text>
<text text-anchor="start" x="1420" y="-30.6" font-family="Times,serif" font-size="13.00">ret: None</text>
<polygon fill="gray" stroke="gray" points="1256,-44 1256,-44 1647,-44 1647,-44 1256,-44"/>
</g>
<!-- 140017761510976&#45;&gt;140017761511488 -->
<g id="edge12" class="edge">
<title>140017761510976&#45;&gt;140017761511488</title>
<path fill="none" stroke="#5c5c5c" d="M1776.58,-109.96C1712.01,-97.08 1628.06,-80.33 1561.57,-67.06"/>
<polygon fill="#5c5c5c" stroke="#5c5c5c" points="1561.97,-63.57 1551.48,-65.05 1560.6,-70.44 1561.97,-63.57"/>
<text text-anchor="middle" x="1690" y="-85.6" font-family="Times,serif" font-size="8.00" fill="#999999">6 (⇑5)</text>
</g>
<!-- 140017761512000 -->
<g id="node8" class="node">
<title>140017761512000</title>
<path fill="#eeeeee" stroke="transparent" d="M1694,-23C1694,-23 2060,-23 2060,-23 2066,-23 2072,-29 2072,-35 2072,-35 2072,-53 2072,-53 2072,-59 2066,-65 2060,-65 2060,-65 1694,-65 1694,-65 1688,-65 1682,-59 1682,-53 1682,-53 1682,-35 1682,-35 1682,-29 1688,-23 1694,-23"/>
<text text-anchor="start" x="1686" y="-50.6" font-family="Times,serif" font-size="13.00">backtrack(,be,[&#39;ad&#39;, &#39;ae&#39;, &#39;af&#39;, &#39;bd&#39;, &#39;be&#39;, &#39;bf&#39;, &#39;cd&#39;, &#39;ce&#39;, &#39;cf&#39;])</text>
<text text-anchor="start" x="1845.5" y="-30.6" font-family="Times,serif" font-size="13.00">ret: None</text>
<polygon fill="gray" stroke="gray" points="1682,-44 1682,-44 2072,-44 2072,-44 1682,-44"/>
</g>
<!-- 140017761510976&#45;&gt;140017761512000 -->
<g id="edge13" class="edge">
<title>140017761510976&#45;&gt;140017761512000</title>
<path fill="none" stroke="#6b6b6b" d="M1877,-109.86C1877,-99.56 1877,-86.81 1877,-75.35"/>
<polygon fill="#6b6b6b" stroke="#6b6b6b" points="1880.5,-75.29 1877,-65.29 1873.5,-75.29 1880.5,-75.29"/>
<text text-anchor="middle" x="1890" y="-85.6" font-family="Times,serif" font-size="8.00" fill="#999999">7 (⇑6)</text>
</g>
<!-- 140017761512512 -->
<g id="node9" class="node">
<title>140017761512512</title>
<path fill="#eeeeee" stroke="transparent" d="M2119.5,-23C2119.5,-23 2482.5,-23 2482.5,-23 2488.5,-23 2494.5,-29 2494.5,-35 2494.5,-35 2494.5,-53 2494.5,-53 2494.5,-59 2488.5,-65 2482.5,-65 2482.5,-65 2119.5,-65 2119.5,-65 2113.5,-65 2107.5,-59 2107.5,-53 2107.5,-53 2107.5,-35 2107.5,-35 2107.5,-29 2113.5,-23 2119.5,-23"/>
<text text-anchor="start" x="2112" y="-50.6" font-family="Times,serif" font-size="13.00">backtrack(,bf,[&#39;ad&#39;, &#39;ae&#39;, &#39;af&#39;, &#39;bd&#39;, &#39;be&#39;, &#39;bf&#39;, &#39;cd&#39;, &#39;ce&#39;, &#39;cf&#39;])</text>
<text text-anchor="start" x="2270" y="-30.6" font-family="Times,serif" font-size="13.00">ret: None</text>
<polygon fill="gray" stroke="gray" points="2108,-44 2108,-44 2495,-44 2495,-44 2108,-44"/>
</g>
<!-- 140017761510976&#45;&gt;140017761512512 -->
<g id="edge14" class="edge">
<title>140017761510976&#45;&gt;140017761512512</title>
<path fill="none" stroke="#7b7b7b" d="M1976.95,-109.96C2041.22,-97.08 2124.78,-80.33 2190.94,-67.06"/>
<polygon fill="#7b7b7b" stroke="#7b7b7b" points="2191.88,-70.45 2200.99,-65.05 2190.5,-63.58 2191.88,-70.45"/>
<text text-anchor="middle" x="2115" y="-85.6" font-family="Times,serif" font-size="8.00" fill="#999999">8 (⇑7)</text>
</g>
<!-- 140017761538624 -->
<g id="node10" class="node">
<title>140017761538624</title>
<path fill="#eeeeee" stroke="transparent" d="M2525,-23C2525,-23 2891,-23 2891,-23 2897,-23 2903,-29 2903,-35 2903,-35 2903,-53 2903,-53 2903,-59 2897,-65 2891,-65 2891,-65 2525,-65 2525,-65 2519,-65 2513,-59 2513,-53 2513,-53 2513,-35 2513,-35 2513,-29 2519,-23 2525,-23"/>
<text text-anchor="start" x="2517" y="-50.6" font-family="Times,serif" font-size="13.00">backtrack(,cd,[&#39;ad&#39;, &#39;ae&#39;, &#39;af&#39;, &#39;bd&#39;, &#39;be&#39;, &#39;bf&#39;, &#39;cd&#39;, &#39;ce&#39;, &#39;cf&#39;])</text>
<text text-anchor="start" x="2676.5" y="-30.6" font-family="Times,serif" font-size="13.00">ret: None</text>
<polygon fill="gray" stroke="gray" points="2513,-44 2513,-44 2903,-44 2903,-44 2513,-44"/>
</g>
<!-- 140017761538112&#45;&gt;140017761538624 -->
<g id="edge15" class="edge">
<title>140017761538112&#45;&gt;140017761538624</title>
<path fill="none" stroke="#999999" d="M2708,-109.86C2708,-99.56 2708,-86.81 2708,-75.35"/>
<polygon fill="#999999" stroke="#999999" points="2711.5,-75.29 2708,-65.29 2704.5,-75.29 2711.5,-75.29"/>
<text text-anchor="middle" x="2723.5" y="-85.6" font-family="Times,serif" font-size="8.00" fill="#999999">10 (⇑9)</text>
</g>
<!-- 140017761539136 -->
<g id="node11" class="node">
<title>140017761539136</title>
<path fill="#eeeeee" stroke="transparent" d="M2950,-23C2950,-23 3316,-23 3316,-23 3322,-23 3328,-29 3328,-35 3328,-35 3328,-53 3328,-53 3328,-59 3322,-65 3316,-65 3316,-65 2950,-65 2950,-65 2944,-65 2938,-59 2938,-53 2938,-53 2938,-35 2938,-35 2938,-29 2944,-23 2950,-23"/>
<text text-anchor="start" x="2942" y="-50.6" font-family="Times,serif" font-size="13.00">backtrack(,ce,[&#39;ad&#39;, &#39;ae&#39;, &#39;af&#39;, &#39;bd&#39;, &#39;be&#39;, &#39;bf&#39;, &#39;cd&#39;, &#39;ce&#39;, &#39;cf&#39;])</text>
<text text-anchor="start" x="3101.5" y="-30.6" font-family="Times,serif" font-size="13.00">ret: None</text>
<polygon fill="gray" stroke="gray" points="2938,-44 2938,-44 3328,-44 3328,-44 2938,-44"/>
</g>
<!-- 140017761538112&#45;&gt;140017761539136 -->
<g id="edge16" class="edge">
<title>140017761538112&#45;&gt;140017761539136</title>
<path fill="none" stroke="#a9a9a9" d="M2808.18,-109.96C2872.61,-97.08 2956.36,-80.33 3022.68,-67.06"/>
<polygon fill="#a9a9a9" stroke="#a9a9a9" points="3023.64,-70.44 3032.76,-65.05 3022.26,-63.58 3023.64,-70.44"/>
<text text-anchor="middle" x="2951.5" y="-85.6" font-family="Times,serif" font-size="8.00" fill="#999999">11 (⇑10)</text>
</g>
<!-- 140017761539648 -->
<g id="node12" class="node">
<title>140017761539648</title>
<path fill="#eeeeee" stroke="transparent" d="M3375.5,-23C3375.5,-23 3738.5,-23 3738.5,-23 3744.5,-23 3750.5,-29 3750.5,-35 3750.5,-35 3750.5,-53 3750.5,-53 3750.5,-59 3744.5,-65 3738.5,-65 3738.5,-65 3375.5,-65 3375.5,-65 3369.5,-65 3363.5,-59 3363.5,-53 3363.5,-53 3363.5,-35 3363.5,-35 3363.5,-29 3369.5,-23 3375.5,-23"/>
<text text-anchor="start" x="3368" y="-50.6" font-family="Times,serif" font-size="13.00">backtrack(,cf,[&#39;ad&#39;, &#39;ae&#39;, &#39;af&#39;, &#39;bd&#39;, &#39;be&#39;, &#39;bf&#39;, &#39;cd&#39;, &#39;ce&#39;, &#39;cf&#39;])</text>
<text text-anchor="start" x="3526" y="-30.6" font-family="Times,serif" font-size="13.00">ret: None</text>
<polygon fill="gray" stroke="gray" points="3364,-44 3364,-44 3751,-44 3751,-44 3364,-44"/>
</g>
<!-- 140017761538112&#45;&gt;140017761539648 -->
<g id="edge17" class="edge">
<title>140017761538112&#45;&gt;140017761539648</title>
<path fill="none" stroke="#b8b8b8" d="M2903.04,-110.47C3037.74,-96.99 3216.5,-79.09 3353.08,-65.42"/>
<polygon fill="#b8b8b8" stroke="#b8b8b8" points="3353.65,-68.88 3363.25,-64.4 3352.95,-61.91 3353.65,-68.88"/>
<text text-anchor="middle" x="3175.5" y="-85.6" font-family="Times,serif" font-size="8.00" fill="#999999">12 (⇑11)</text>
</g>
<!-- 140017761509440&#45;&gt;140017761509952 -->
<!-- 140017761509952&#45;&gt;140017761510464 -->
<!-- 140017761511488&#45;&gt;140017761512000 -->
<!-- 140017761512000&#45;&gt;140017761512512 -->
<!-- 140017761538624&#45;&gt;140017761539136 -->
<!-- 140017761539136&#45;&gt;140017761539648 -->
<!-- 140017763185728 -->
<g id="node13" class="node">
<title>140017763185728</title>
<path fill="#eeeeee" stroke="transparent" d="M1693.5,-197C1693.5,-197 2060.5,-197 2060.5,-197 2066.5,-197 2072.5,-203 2072.5,-209 2072.5,-209 2072.5,-227 2072.5,-227 2072.5,-233 2066.5,-239 2060.5,-239 2060.5,-239 1693.5,-239 1693.5,-239 1687.5,-239 1681.5,-233 1681.5,-227 1681.5,-227 1681.5,-209 1681.5,-209 1681.5,-203 1687.5,-197 1693.5,-197"/>
<text text-anchor="start" x="1686" y="-224.6" font-family="Times,serif" font-size="13.00">backtrack(23,,[&#39;ad&#39;, &#39;ae&#39;, &#39;af&#39;, &#39;bd&#39;, &#39;be&#39;, &#39;bf&#39;, &#39;cd&#39;, &#39;ce&#39;, &#39;cf&#39;])</text>
<text text-anchor="start" x="1846" y="-204.6" font-family="Times,serif" font-size="13.00">ret: None</text>
<polygon fill="gray" stroke="gray" points="1682,-218 1682,-218 2073,-218 2073,-218 1682,-218"/>
</g>
<!-- 140017763185728&#45;&gt;140017763187776 -->
<g id="edge18" class="edge">
<title>140017763185728&#45;&gt;140017763187776</title>
<path fill="none" stroke="#0f0f0f" d="M1681.44,-197.04C1551.49,-183.78 1381.16,-166.4 1249.27,-152.95"/>
<polygon fill="#0f0f0f" stroke="#0f0f0f" points="1249.34,-149.44 1239.04,-151.9 1248.63,-156.4 1249.34,-149.44"/>
<text text-anchor="middle" x="1499" y="-172.6" font-family="Times,serif" font-size="8.00" fill="#999999">1 (⇑4)</text>
</g>
<!-- 140017763185728&#45;&gt;140017761510976 -->
<g id="edge19" class="edge">
<title>140017763185728&#45;&gt;140017761510976</title>
<path fill="none" stroke="#4c4c4c" d="M1877,-196.86C1877,-186.56 1877,-173.81 1877,-162.35"/>
<polygon fill="#4c4c4c" stroke="#4c4c4c" points="1880.5,-162.29 1877,-152.29 1873.5,-162.29 1880.5,-162.29"/>
<text text-anchor="middle" x="1890" y="-172.6" font-family="Times,serif" font-size="8.00" fill="#999999">5 (⇑8)</text>
</g>
<!-- 140017763185728&#45;&gt;140017761538112 -->
<g id="edge20" class="edge">
<title>140017763185728&#45;&gt;140017761538112</title>
<path fill="none" stroke="#8a8a8a" d="M2072.62,-196.99C2202.04,-183.75 2371.43,-166.43 2502.77,-152.99"/>
<polygon fill="#8a8a8a" stroke="#8a8a8a" points="2503.36,-156.45 2512.95,-151.95 2502.65,-149.49 2503.36,-156.45"/>
<text text-anchor="middle" x="2333.5" y="-172.6" font-family="Times,serif" font-size="8.00" fill="#999999">9 (⇑12)</text>
</g>
</g>
</svg>
